<svg xmlns="http://www.w3.org/2000/svg" xmlns:xlink="http://www.w3.org/1999/xlink" width="1080" zoomAndPan="magnify" viewBox="0 0 810 809.999993" height="1080" preserveAspectRatio="xMidYMid meet" version="1.0"><defs><clipPath id="2587f950d7"><path d="M 540 110.792969 L 570 110.792969 L 570 141 L 540 141 Z M 540 110.792969 " clip-rule="nonzero"/></clipPath><clipPath id="48e9ee1506"><path d="M 738 373 L 768.488281 373 L 768.488281 403 L 738 403 Z M 738 373 " clip-rule="nonzero"/></clipPath><clipPath id="1556de007e"><path d="M 41.738281 640 L 155 640 L 155 668 L 41.738281 668 Z M 41.738281 640 " clip-rule="nonzero"/></clipPath><clipPath id="3881d8d027"><path d="M 384.378906 344.632812 L 459.328125 344.632812 L 459.328125 419.582031 L 384.378906 419.582031 Z M 384.378906 344.632812 " clip-rule="nonzero"/></clipPath><clipPath id="aea5a44048"><path d="M 421.855469 344.632812 C 401.15625 344.632812 384.378906 361.410156 384.378906 382.109375 C 384.378906 402.804688 401.15625 419.582031 421.855469 419.582031 C 442.550781 419.582031 459.328125 402.804688 459.328125 382.109375 C 459.328125 361.410156 442.550781 344.632812 421.855469 344.632812 Z M 421.855469 344.632812 " clip-rule="nonzero"/></clipPath><clipPath id="fca1ebcff3"><path d="M 389.386719 350 L 454 350 L 454 414.574219 L 389.386719 414.574219 Z M 389.386719 350 " clip-rule="nonzero"/></clipPath><clipPath id="11362ad2ec"><path d="M 389.386719 349.324219 L 454.636719 349.324219 L 454.636719 414.574219 L 389.386719 414.574219 Z M 389.386719 349.324219 " clip-rule="nonzero"/></clipPath><clipPath id="c0761c93ae"><path d="M 389.386719 349.324219 L 454.636719 349.324219 L 454.636719 414 L 389.386719 414 Z M 389.386719 349.324219 " clip-rule="nonzero"/></clipPath></defs><path fill="#3f3d56" d="M 274.101562 197.625 L 275.585938 197.625 L 275.585938 276.875 L 274.101562 276.875 Z M 274.101562 197.625 " fill-opacity="1" fill-rule="nonzero"/><path fill="#3f3d56" d="M 274.101562 300.464844 L 275.585938 300.464844 L 275.585938 370.199219 L 274.101562 370.199219 Z M 274.101562 300.464844 " fill-opacity="1" fill-rule="nonzero"/><path fill="#3f3d56" d="M 271.878906 381.308594 L 386.765625 381.308594 L 386.765625 382.789062 L 271.878906 382.789062 Z M 271.878906 381.308594 " fill-opacity="1" fill-rule="nonzero"/><path fill="#3f3d56" d="M 222.960938 401.308594 L 224.441406 401.308594 L 224.441406 464.261719 L 222.960938 464.261719 Z M 222.960938 401.308594 " fill-opacity="1" fill-rule="nonzero"/><path fill="#3f3d56" d="M 236.300781 475.371094 L 410.484375 475.371094 L 410.484375 476.855469 L 236.300781 476.855469 Z M 236.300781 475.371094 " fill-opacity="1" fill-rule="nonzero"/><path fill="#3f3d56" d="M 554.28125 147.261719 L 555.761719 147.261719 L 555.761719 222.066406 L 554.28125 222.066406 Z M 554.28125 147.261719 " fill-opacity="1" fill-rule="nonzero"/><path fill="#3f3d56" d="M 434.179688 233.917969 L 543.160156 233.917969 L 543.160156 235.398438 L 434.179688 235.398438 Z M 434.179688 233.917969 " fill-opacity="1" fill-rule="nonzero"/><path fill="#3f3d56" d="M 421.601562 245.769531 L 423.085938 245.769531 L 423.085938 345.757812 L 421.601562 345.757812 Z M 421.601562 245.769531 " fill-opacity="1" fill-rule="nonzero"/><path fill="#3f3d56" d="M 274.84375 301.316406 C 274.015625 301.316406 273.199219 301.238281 272.386719 301.074219 C 271.574219 300.914062 270.785156 300.675781 270.023438 300.359375 C 269.257812 300.042969 268.53125 299.65625 267.84375 299.195312 C 267.15625 298.738281 266.519531 298.214844 265.933594 297.628906 C 265.347656 297.046875 264.828125 296.410156 264.367188 295.722656 C 263.90625 295.035156 263.519531 294.308594 263.203125 293.546875 C 262.886719 292.78125 262.648438 291.992188 262.484375 291.183594 C 262.324219 290.371094 262.242188 289.554688 262.242188 288.726562 C 262.242188 287.898438 262.324219 287.082031 262.484375 286.269531 C 262.648438 285.460938 262.886719 284.671875 263.203125 283.910156 C 263.519531 283.144531 263.90625 282.417969 264.367188 281.730469 C 264.828125 281.042969 265.347656 280.40625 265.933594 279.824219 C 266.519531 279.238281 267.15625 278.71875 267.84375 278.257812 C 268.53125 277.796875 269.257812 277.410156 270.023438 277.09375 C 270.785156 276.777344 271.574219 276.539062 272.386719 276.378906 C 273.199219 276.214844 274.015625 276.136719 274.84375 276.136719 C 275.671875 276.136719 276.492188 276.214844 277.300781 276.378906 C 278.113281 276.539062 278.902344 276.777344 279.667969 277.09375 C 280.429688 277.410156 281.15625 277.796875 281.84375 278.257812 C 282.53125 278.71875 283.167969 279.238281 283.753906 279.824219 C 284.339844 280.40625 284.863281 281.042969 285.320312 281.730469 C 285.78125 282.417969 286.167969 283.144531 286.484375 283.910156 C 286.800781 284.671875 287.042969 285.460938 287.203125 286.269531 C 287.363281 287.082031 287.445312 287.898438 287.445312 288.726562 C 287.445312 289.554688 287.363281 290.371094 287.199219 291.183594 C 287.039062 291.992188 286.796875 292.78125 286.480469 293.542969 C 286.164062 294.304688 285.777344 295.03125 285.316406 295.71875 C 284.855469 296.40625 284.335938 297.042969 283.75 297.625 C 283.164062 298.210938 282.527344 298.730469 281.839844 299.191406 C 281.152344 299.652344 280.429688 300.039062 279.664062 300.355469 C 278.898438 300.671875 278.113281 300.910156 277.300781 301.074219 C 276.492188 301.234375 275.671875 301.316406 274.84375 301.316406 Z M 274.84375 277.617188 C 274.113281 277.617188 273.390625 277.6875 272.675781 277.832031 C 271.960938 277.972656 271.265625 278.183594 270.589844 278.460938 C 269.914062 278.742188 269.273438 279.082031 268.667969 279.488281 C 268.058594 279.894531 267.5 280.355469 266.980469 280.871094 C 266.464844 281.386719 266.003906 281.949219 265.601562 282.554688 C 265.195312 283.160156 264.851562 283.800781 264.574219 284.476562 C 264.292969 285.148438 264.082031 285.84375 263.941406 286.558594 C 263.796875 287.273438 263.726562 287.996094 263.726562 288.726562 C 263.726562 289.457031 263.796875 290.179688 263.941406 290.894531 C 264.082031 291.609375 264.292969 292.304688 264.574219 292.976562 C 264.851562 293.652344 265.195312 294.292969 265.601562 294.898438 C 266.003906 295.503906 266.464844 296.066406 266.980469 296.582031 C 267.5 297.097656 268.058594 297.558594 268.667969 297.964844 C 269.273438 298.371094 269.914062 298.710938 270.589844 298.992188 C 271.265625 299.269531 271.960938 299.480469 272.675781 299.625 C 273.390625 299.765625 274.113281 299.835938 274.84375 299.835938 C 275.574219 299.835938 276.296875 299.765625 277.011719 299.625 C 277.730469 299.480469 278.425781 299.269531 279.097656 298.992188 C 279.773438 298.710938 280.414062 298.371094 281.019531 297.964844 C 281.628906 297.558594 282.191406 297.097656 282.707031 296.582031 C 283.222656 296.066406 283.683594 295.503906 284.089844 294.898438 C 284.492188 294.292969 284.835938 293.652344 285.117188 292.976562 C 285.394531 292.304688 285.605469 291.609375 285.75 290.894531 C 285.890625 290.179688 285.960938 289.457031 285.960938 288.726562 C 285.960938 287.996094 285.890625 287.273438 285.746094 286.558594 C 285.605469 285.84375 285.390625 285.152344 285.113281 284.476562 C 284.832031 283.804688 284.492188 283.164062 284.085938 282.558594 C 283.679688 281.949219 283.21875 281.390625 282.703125 280.875 C 282.1875 280.359375 281.625 279.898438 281.019531 279.492188 C 280.410156 279.085938 279.769531 278.746094 279.097656 278.464844 C 278.421875 278.1875 277.726562 277.976562 277.011719 277.832031 C 276.296875 277.691406 275.574219 277.617188 274.84375 277.617188 Z M 274.84375 277.617188 " fill-opacity="1" fill-rule="nonzero"/><path fill="#3f3d56" d="M 224.441406 488.703125 C 223.613281 488.703125 222.796875 488.625 221.984375 488.460938 C 221.171875 488.300781 220.382812 488.0625 219.621094 487.746094 C 218.855469 487.429688 218.128906 487.042969 217.441406 486.582031 C 216.753906 486.121094 216.117188 485.601562 215.53125 485.015625 C 214.945312 484.433594 214.425781 483.796875 213.964844 483.109375 C 213.503906 482.421875 213.117188 481.695312 212.800781 480.929688 C 212.484375 480.167969 212.246094 479.378906 212.082031 478.570312 C 211.921875 477.757812 211.839844 476.941406 211.839844 476.113281 C 211.839844 475.285156 211.921875 474.46875 212.082031 473.65625 C 212.246094 472.847656 212.484375 472.058594 212.800781 471.292969 C 213.117188 470.53125 213.503906 469.804688 213.964844 469.117188 C 214.425781 468.429688 214.945312 467.792969 215.53125 467.210938 C 216.117188 466.625 216.753906 466.101562 217.441406 465.644531 C 218.128906 465.183594 218.855469 464.796875 219.621094 464.480469 C 220.382812 464.164062 221.171875 463.925781 221.984375 463.765625 C 222.796875 463.601562 223.613281 463.523438 224.441406 463.523438 C 225.269531 463.523438 226.089844 463.601562 226.898438 463.765625 C 227.710938 463.925781 228.5 464.164062 229.265625 464.480469 C 230.027344 464.796875 230.753906 465.183594 231.441406 465.644531 C 232.128906 466.101562 232.765625 466.625 233.351562 467.210938 C 233.9375 467.792969 234.460938 468.429688 234.917969 469.117188 C 235.378906 469.804688 235.765625 470.53125 236.082031 471.292969 C 236.398438 472.058594 236.640625 472.847656 236.800781 473.65625 C 236.960938 474.46875 237.042969 475.285156 237.042969 476.113281 C 237.042969 476.941406 236.960938 477.757812 236.796875 478.570312 C 236.636719 479.378906 236.398438 480.164062 236.078125 480.929688 C 235.761719 481.691406 235.375 482.417969 234.914062 483.105469 C 234.453125 483.792969 233.933594 484.429688 233.347656 485.011719 C 232.761719 485.597656 232.125 486.117188 231.4375 486.578125 C 230.75 487.039062 230.027344 487.425781 229.261719 487.742188 C 228.496094 488.058594 227.710938 488.296875 226.898438 488.460938 C 226.089844 488.621094 225.269531 488.703125 224.441406 488.703125 Z M 224.441406 465.003906 C 223.710938 465.003906 222.988281 465.074219 222.273438 465.214844 C 221.558594 465.359375 220.863281 465.570312 220.1875 465.847656 C 219.511719 466.128906 218.871094 466.46875 218.265625 466.875 C 217.65625 467.28125 217.097656 467.742188 216.582031 468.257812 C 216.0625 468.773438 215.601562 469.335938 215.199219 469.941406 C 214.792969 470.546875 214.449219 471.1875 214.171875 471.863281 C 213.890625 472.535156 213.679688 473.230469 213.539062 473.945312 C 213.394531 474.660156 213.324219 475.382812 213.324219 476.113281 C 213.324219 476.84375 213.394531 477.566406 213.539062 478.28125 C 213.679688 478.996094 213.890625 479.691406 214.171875 480.363281 C 214.449219 481.039062 214.792969 481.679688 215.199219 482.285156 C 215.601562 482.890625 216.0625 483.453125 216.582031 483.96875 C 217.097656 484.484375 217.65625 484.945312 218.265625 485.351562 C 218.871094 485.757812 219.511719 486.097656 220.1875 486.378906 C 220.863281 486.65625 221.558594 486.867188 222.273438 487.007812 C 222.988281 487.152344 223.710938 487.222656 224.441406 487.222656 C 225.171875 487.222656 225.894531 487.152344 226.609375 487.007812 C 227.328125 486.867188 228.023438 486.65625 228.695312 486.378906 C 229.371094 486.097656 230.011719 485.757812 230.617188 485.351562 C 231.226562 484.945312 231.789062 484.484375 232.304688 483.96875 C 232.820312 483.453125 233.28125 482.890625 233.6875 482.285156 C 234.09375 481.679688 234.433594 481.039062 234.714844 480.363281 C 234.992188 479.691406 235.203125 478.996094 235.347656 478.28125 C 235.488281 477.566406 235.558594 476.84375 235.558594 476.113281 C 235.558594 475.382812 235.488281 474.660156 235.34375 473.945312 C 235.203125 473.230469 234.988281 472.535156 234.710938 471.863281 C 234.429688 471.191406 234.089844 470.550781 233.683594 469.945312 C 233.277344 469.335938 232.816406 468.777344 232.300781 468.261719 C 231.785156 467.746094 231.222656 467.285156 230.617188 466.878906 C 230.007812 466.472656 229.367188 466.132812 228.695312 465.851562 C 228.019531 465.574219 227.324219 465.363281 226.609375 465.21875 C 225.894531 465.074219 225.171875 465.003906 224.441406 465.003906 Z M 224.441406 465.003906 " fill-opacity="1" fill-rule="nonzero"/><path fill="#58bf81" d="M 287.445312 382.050781 C 287.445312 382.828125 287.367188 383.597656 287.214844 384.363281 C 287.066406 385.125 286.839844 385.867188 286.542969 386.585938 C 286.242188 387.304688 285.878906 387.988281 285.445312 388.632812 C 285.011719 389.28125 284.523438 389.878906 283.972656 390.429688 C 283.421875 390.980469 282.820312 391.46875 282.175781 391.902344 C 281.527344 392.335938 280.84375 392.699219 280.125 393 C 279.402344 393.296875 278.664062 393.519531 277.898438 393.671875 C 277.136719 393.824219 276.363281 393.898438 275.585938 393.898438 C 274.804688 393.898438 274.035156 393.824219 273.273438 393.671875 C 272.507812 393.519531 271.765625 393.296875 271.046875 393 C 270.328125 392.699219 269.644531 392.335938 268.996094 391.902344 C 268.347656 391.46875 267.75 390.980469 267.199219 390.429688 C 266.648438 389.878906 266.15625 389.28125 265.722656 388.632812 C 265.292969 387.988281 264.925781 387.304688 264.628906 386.585938 C 264.332031 385.867188 264.105469 385.125 263.953125 384.363281 C 263.800781 383.597656 263.726562 382.828125 263.726562 382.050781 C 263.726562 381.273438 263.800781 380.5 263.953125 379.738281 C 264.105469 378.972656 264.332031 378.234375 264.628906 377.515625 C 264.925781 376.796875 265.292969 376.113281 265.722656 375.464844 C 266.15625 374.820312 266.648438 374.21875 267.199219 373.671875 C 267.75 373.121094 268.347656 372.628906 268.996094 372.195312 C 269.644531 371.765625 270.328125 371.398438 271.046875 371.101562 C 271.765625 370.804688 272.507812 370.578125 273.273438 370.425781 C 274.035156 370.273438 274.804688 370.199219 275.585938 370.199219 C 276.363281 370.199219 277.136719 370.273438 277.898438 370.425781 C 278.664062 370.578125 279.402344 370.804688 280.125 371.101562 C 280.84375 371.398438 281.527344 371.765625 282.175781 372.195312 C 282.820312 372.628906 283.421875 373.121094 283.972656 373.671875 C 284.523438 374.21875 285.011719 374.820312 285.445312 375.464844 C 285.878906 376.113281 286.242188 376.796875 286.542969 377.515625 C 286.839844 378.234375 287.066406 378.972656 287.214844 379.738281 C 287.367188 380.5 287.445312 381.273438 287.445312 382.050781 Z M 287.445312 382.050781 " fill-opacity="1" fill-rule="nonzero"/><path fill="#3f3d56" d="M 581.703125 287.984375 L 704.746094 287.984375 L 704.746094 289.46875 L 581.703125 289.46875 Z M 581.703125 287.984375 " fill-opacity="1" fill-rule="nonzero"/><path fill="#3f3d56" d="M 569.105469 300.464844 L 570.585938 300.464844 L 570.585938 370.199219 L 569.105469 370.199219 Z M 569.105469 300.464844 " fill-opacity="1" fill-rule="nonzero"/><path fill="#3f3d56" d="M 458.664062 381.308594 L 557.246094 381.308594 L 557.246094 382.789062 L 458.664062 382.789062 Z M 458.664062 381.308594 " fill-opacity="1" fill-rule="nonzero"/><path fill="#3f3d56" d="M 632.105469 387.976562 L 734.394531 387.976562 L 734.394531 389.457031 L 632.105469 389.457031 Z M 632.105469 387.976562 " fill-opacity="1" fill-rule="nonzero"/><path fill="#3f3d56" d="M 620.246094 401.308594 L 621.730469 401.308594 L 621.730469 464.261719 L 620.246094 464.261719 Z M 620.246094 401.308594 " fill-opacity="1" fill-rule="nonzero"/><path fill="#3f3d56" d="M 434.203125 475.371094 L 608.386719 475.371094 L 608.386719 476.855469 L 434.203125 476.855469 Z M 434.203125 475.371094 " fill-opacity="1" fill-rule="nonzero"/><path fill="#3f3d56" d="M 421.601562 418.34375 L 423.085938 418.34375 L 423.085938 464.261719 L 421.601562 464.261719 Z M 421.601562 418.34375 " fill-opacity="1" fill-rule="nonzero"/><path fill="#58bf81" d="M 581.703125 288.726562 C 581.703125 289.503906 581.628906 290.277344 581.476562 291.039062 C 581.324219 291.800781 581.097656 292.542969 580.800781 293.261719 C 580.503906 293.980469 580.136719 294.664062 579.707031 295.3125 C 579.273438 295.957031 578.78125 296.554688 578.230469 297.105469 C 577.679688 297.65625 577.082031 298.148438 576.433594 298.582031 C 575.785156 299.011719 575.101562 299.378906 574.382812 299.675781 C 573.664062 299.972656 572.921875 300.199219 572.160156 300.351562 C 571.394531 300.5 570.625 300.578125 569.84375 300.578125 C 569.066406 300.578125 568.292969 300.5 567.53125 300.351562 C 566.765625 300.199219 566.027344 299.972656 565.304688 299.675781 C 564.585938 299.378906 563.902344 299.011719 563.257812 298.582031 C 562.609375 298.148438 562.007812 297.65625 561.457031 297.105469 C 560.910156 296.554688 560.417969 295.957031 559.984375 295.3125 C 559.550781 294.664062 559.1875 293.980469 558.886719 293.261719 C 558.589844 292.542969 558.363281 291.800781 558.214844 291.039062 C 558.0625 290.277344 557.984375 289.503906 557.984375 288.726562 C 557.984375 287.949219 558.0625 287.179688 558.214844 286.414062 C 558.363281 285.652344 558.589844 284.910156 558.886719 284.191406 C 559.1875 283.472656 559.550781 282.789062 559.984375 282.144531 C 560.417969 281.496094 560.910156 280.898438 561.457031 280.347656 C 562.007812 279.796875 562.609375 279.304688 563.257812 278.875 C 563.902344 278.441406 564.585938 278.074219 565.304688 277.777344 C 566.027344 277.480469 566.765625 277.253906 567.53125 277.105469 C 568.292969 276.953125 569.066406 276.875 569.84375 276.875 C 570.625 276.875 571.394531 276.953125 572.160156 277.105469 C 572.921875 277.253906 573.664062 277.480469 574.382812 277.777344 C 575.101562 278.078125 575.785156 278.441406 576.433594 278.875 C 577.082031 279.304688 577.679688 279.796875 578.230469 280.347656 C 578.78125 280.898438 579.273438 281.496094 579.707031 282.144531 C 580.136719 282.789062 580.503906 283.472656 580.800781 284.191406 C 581.097656 284.910156 581.324219 285.652344 581.476562 286.414062 C 581.628906 287.179688 581.703125 287.949219 581.703125 288.726562 Z M 581.703125 288.726562 " fill-opacity="1" fill-rule="nonzero"/><path fill="#3f3d56" d="M 555.019531 246.507812 C 554.191406 246.507812 553.375 246.429688 552.5625 246.265625 C 551.75 246.105469 550.964844 245.867188 550.199219 245.550781 C 549.433594 245.234375 548.707031 244.847656 548.019531 244.386719 C 547.332031 243.929688 546.695312 243.40625 546.109375 242.820312 C 545.527344 242.238281 545.003906 241.601562 544.542969 240.914062 C 544.085938 240.226562 543.695312 239.5 543.378906 238.738281 C 543.0625 237.972656 542.824219 237.183594 542.664062 236.375 C 542.5 235.5625 542.421875 234.746094 542.421875 233.917969 C 542.421875 233.089844 542.5 232.273438 542.664062 231.460938 C 542.824219 230.652344 543.0625 229.863281 543.378906 229.101562 C 543.695312 228.335938 544.085938 227.609375 544.542969 226.921875 C 545.003906 226.234375 545.527344 225.597656 546.109375 225.015625 C 546.695312 224.429688 547.332031 223.910156 548.019531 223.449219 C 548.707031 222.988281 549.433594 222.601562 550.199219 222.285156 C 550.964844 221.96875 551.75 221.730469 552.5625 221.570312 C 553.375 221.40625 554.191406 221.328125 555.019531 221.328125 C 555.847656 221.328125 556.667969 221.40625 557.480469 221.570312 C 558.289062 221.730469 559.078125 221.96875 559.84375 222.285156 C 560.605469 222.601562 561.332031 222.988281 562.019531 223.449219 C 562.710938 223.910156 563.34375 224.429688 563.929688 225.015625 C 564.515625 225.597656 565.039062 226.234375 565.496094 226.921875 C 565.957031 227.609375 566.34375 228.335938 566.660156 229.101562 C 566.980469 229.863281 567.21875 230.652344 567.378906 231.460938 C 567.539062 232.273438 567.621094 233.089844 567.621094 233.917969 C 567.621094 234.746094 567.539062 235.5625 567.375 236.375 C 567.214844 237.183594 566.976562 237.972656 566.660156 238.734375 C 566.339844 239.496094 565.953125 240.222656 565.492188 240.910156 C 565.035156 241.597656 564.511719 242.234375 563.925781 242.816406 C 563.339844 243.402344 562.707031 243.921875 562.019531 244.382812 C 561.332031 244.84375 560.605469 245.230469 559.839844 245.546875 C 559.078125 245.863281 558.289062 246.101562 557.476562 246.265625 C 556.667969 246.425781 555.847656 246.507812 555.019531 246.507812 Z M 555.019531 222.808594 C 554.289062 222.808594 553.566406 222.878906 552.851562 223.023438 C 552.136719 223.164062 551.441406 223.375 550.765625 223.652344 C 550.089844 223.933594 549.449219 224.273438 548.84375 224.679688 C 548.238281 225.085938 547.675781 225.546875 547.160156 226.0625 C 546.644531 226.578125 546.183594 227.140625 545.777344 227.746094 C 545.371094 228.351562 545.027344 228.992188 544.75 229.667969 C 544.46875 230.339844 544.257812 231.035156 544.117188 231.75 C 543.972656 232.464844 543.902344 233.1875 543.902344 233.917969 C 543.902344 234.648438 543.972656 235.371094 544.117188 236.085938 C 544.257812 236.800781 544.46875 237.496094 544.75 238.167969 C 545.027344 238.84375 545.371094 239.484375 545.777344 240.089844 C 546.183594 240.695312 546.644531 241.257812 547.160156 241.773438 C 547.675781 242.289062 548.238281 242.75 548.84375 243.15625 C 549.449219 243.5625 550.089844 243.902344 550.765625 244.183594 C 551.441406 244.460938 552.136719 244.671875 552.851562 244.816406 C 553.566406 244.957031 554.289062 245.027344 555.019531 245.027344 C 555.75 245.027344 556.472656 244.957031 557.191406 244.816406 C 557.90625 244.671875 558.601562 244.460938 559.273438 244.183594 C 559.949219 243.902344 560.589844 243.5625 561.199219 243.15625 C 561.804688 242.75 562.367188 242.289062 562.882812 241.773438 C 563.398438 241.257812 563.859375 240.695312 564.265625 240.089844 C 564.671875 239.484375 565.011719 238.84375 565.292969 238.167969 C 565.570312 237.496094 565.78125 236.800781 565.925781 236.085938 C 566.066406 235.371094 566.140625 234.648438 566.140625 233.917969 C 566.136719 233.1875 566.066406 232.464844 565.921875 231.75 C 565.78125 231.035156 565.570312 230.34375 565.289062 229.667969 C 565.007812 228.996094 564.667969 228.355469 564.261719 227.75 C 563.855469 227.140625 563.394531 226.582031 562.878906 226.066406 C 562.363281 225.550781 561.800781 225.089844 561.195312 224.683594 C 560.589844 224.277344 559.949219 223.9375 559.273438 223.65625 C 558.597656 223.378906 557.90625 223.167969 557.1875 223.023438 C 556.472656 222.882812 555.75 222.808594 555.019531 222.808594 Z M 555.019531 222.808594 " fill-opacity="1" fill-rule="nonzero"/><path fill="#3f3d56" d="M 422.34375 246.507812 C 421.515625 246.507812 420.699219 246.429688 419.886719 246.265625 C 419.074219 246.105469 418.285156 245.867188 417.523438 245.550781 C 416.757812 245.234375 416.03125 244.847656 415.34375 244.386719 C 414.65625 243.929688 414.019531 243.40625 413.433594 242.820312 C 412.847656 242.238281 412.328125 241.601562 411.867188 240.914062 C 411.40625 240.226562 411.019531 239.5 410.703125 238.738281 C 410.386719 237.972656 410.148438 237.183594 409.984375 236.375 C 409.824219 235.5625 409.742188 234.746094 409.742188 233.917969 C 409.742188 233.089844 409.824219 232.273438 409.984375 231.460938 C 410.148438 230.652344 410.386719 229.863281 410.703125 229.101562 C 411.019531 228.335938 411.40625 227.609375 411.867188 226.921875 C 412.328125 226.234375 412.847656 225.597656 413.433594 225.015625 C 414.019531 224.429688 414.65625 223.910156 415.34375 223.449219 C 416.03125 222.988281 416.757812 222.601562 417.523438 222.285156 C 418.285156 221.96875 419.074219 221.730469 419.886719 221.570312 C 420.699219 221.40625 421.515625 221.328125 422.34375 221.328125 C 423.171875 221.328125 423.992188 221.40625 424.800781 221.570312 C 425.613281 221.730469 426.402344 221.96875 427.167969 222.285156 C 427.929688 222.601562 428.65625 222.988281 429.34375 223.449219 C 430.03125 223.910156 430.667969 224.429688 431.253906 225.015625 C 431.839844 225.597656 432.363281 226.234375 432.820312 226.921875 C 433.28125 227.609375 433.667969 228.335938 433.984375 229.101562 C 434.300781 229.863281 434.542969 230.652344 434.703125 231.460938 C 434.863281 232.273438 434.945312 233.089844 434.945312 233.917969 C 434.945312 234.746094 434.863281 235.5625 434.699219 236.375 C 434.539062 237.183594 434.300781 237.972656 433.980469 238.734375 C 433.664062 239.496094 433.277344 240.222656 432.816406 240.910156 C 432.359375 241.597656 431.835938 242.234375 431.25 242.816406 C 430.664062 243.402344 430.027344 243.921875 429.339844 244.382812 C 428.652344 244.84375 427.929688 245.230469 427.164062 245.546875 C 426.398438 245.863281 425.613281 246.101562 424.800781 246.265625 C 423.992188 246.425781 423.171875 246.507812 422.34375 246.507812 Z M 422.34375 222.808594 C 421.613281 222.808594 420.890625 222.878906 420.175781 223.023438 C 419.460938 223.164062 418.765625 223.375 418.089844 223.652344 C 417.414062 223.933594 416.773438 224.273438 416.167969 224.679688 C 415.5625 225.085938 415 225.546875 414.484375 226.0625 C 413.964844 226.578125 413.503906 227.140625 413.101562 227.746094 C 412.695312 228.351562 412.351562 228.992188 412.074219 229.667969 C 411.792969 230.339844 411.582031 231.035156 411.441406 231.75 C 411.296875 232.464844 411.226562 233.1875 411.226562 233.917969 C 411.226562 234.648438 411.296875 235.371094 411.441406 236.085938 C 411.582031 236.800781 411.792969 237.496094 412.074219 238.167969 C 412.351562 238.84375 412.695312 239.484375 413.101562 240.089844 C 413.503906 240.695312 413.964844 241.257812 414.484375 241.773438 C 415 242.289062 415.5625 242.75 416.167969 243.15625 C 416.773438 243.5625 417.414062 243.902344 418.089844 244.183594 C 418.765625 244.460938 419.460938 244.671875 420.175781 244.816406 C 420.890625 244.957031 421.613281 245.027344 422.34375 245.027344 C 423.074219 245.027344 423.796875 244.957031 424.511719 244.816406 C 425.230469 244.671875 425.925781 244.460938 426.597656 244.183594 C 427.273438 243.902344 427.914062 243.5625 428.519531 243.15625 C 429.128906 242.75 429.691406 242.289062 430.207031 241.773438 C 430.722656 241.257812 431.183594 240.695312 431.589844 240.089844 C 431.996094 239.484375 432.335938 238.84375 432.617188 238.167969 C 432.894531 237.496094 433.105469 236.800781 433.25 236.085938 C 433.390625 235.371094 433.460938 234.648438 433.460938 233.917969 C 433.460938 233.1875 433.390625 232.464844 433.246094 231.75 C 433.105469 231.035156 432.894531 230.34375 432.613281 229.667969 C 432.332031 228.996094 431.992188 228.355469 431.585938 227.75 C 431.179688 227.140625 430.71875 226.582031 430.203125 226.066406 C 429.6875 225.550781 429.125 225.089844 428.519531 224.683594 C 427.910156 224.277344 427.269531 223.9375 426.597656 223.65625 C 425.921875 223.378906 425.226562 223.167969 424.511719 223.023438 C 423.796875 222.882812 423.074219 222.808594 422.34375 222.808594 Z M 422.34375 222.808594 " fill-opacity="1" fill-rule="nonzero"/><path fill="#3f3d56" d="M 620.246094 402.046875 C 619.417969 402.046875 618.601562 401.964844 617.789062 401.804688 C 616.976562 401.644531 616.1875 401.40625 615.425781 401.089844 C 614.660156 400.773438 613.933594 400.382812 613.246094 399.925781 C 612.558594 399.464844 611.921875 398.945312 611.335938 398.359375 C 610.75 397.773438 610.230469 397.140625 609.769531 396.453125 C 609.308594 395.765625 608.921875 395.039062 608.605469 394.273438 C 608.289062 393.511719 608.050781 392.722656 607.886719 391.914062 C 607.726562 391.101562 607.644531 390.28125 607.644531 389.457031 C 607.644531 388.628906 607.726562 387.8125 607.886719 387 C 608.050781 386.1875 608.289062 385.402344 608.605469 384.636719 C 608.921875 383.875 609.308594 383.148438 609.769531 382.460938 C 610.230469 381.773438 610.75 381.136719 611.335938 380.554688 C 611.921875 379.96875 612.558594 379.445312 613.246094 378.988281 C 613.933594 378.527344 614.660156 378.140625 615.425781 377.824219 C 616.1875 377.507812 616.976562 377.269531 617.789062 377.105469 C 618.601562 376.945312 619.417969 376.863281 620.246094 376.863281 C 621.074219 376.863281 621.894531 376.945312 622.707031 377.105469 C 623.515625 377.269531 624.304688 377.507812 625.070312 377.824219 C 625.832031 378.140625 626.558594 378.527344 627.246094 378.988281 C 627.933594 379.445312 628.570312 379.96875 629.15625 380.554688 C 629.742188 381.136719 630.265625 381.773438 630.722656 382.460938 C 631.183594 383.148438 631.570312 383.875 631.886719 384.636719 C 632.203125 385.402344 632.445312 386.1875 632.605469 387 C 632.765625 387.8125 632.847656 388.628906 632.847656 389.457031 C 632.847656 390.28125 632.765625 391.101562 632.601562 391.910156 C 632.441406 392.722656 632.203125 393.507812 631.882812 394.273438 C 631.566406 395.035156 631.179688 395.761719 630.71875 396.449219 C 630.261719 397.136719 629.738281 397.769531 629.152344 398.355469 C 628.566406 398.941406 627.933594 399.460938 627.242188 399.921875 C 626.554688 400.378906 625.832031 400.769531 625.066406 401.085938 C 624.304688 401.402344 623.515625 401.640625 622.703125 401.804688 C 621.894531 401.964844 621.074219 402.046875 620.246094 402.046875 Z M 620.246094 378.347656 C 619.515625 378.347656 618.792969 378.417969 618.078125 378.558594 C 617.363281 378.703125 616.667969 378.914062 615.992188 379.191406 C 615.316406 379.472656 614.675781 379.8125 614.070312 380.21875 C 613.464844 380.625 612.902344 381.085938 612.386719 381.601562 C 611.867188 382.117188 611.40625 382.675781 611.003906 383.285156 C 610.597656 383.890625 610.253906 384.53125 609.976562 385.203125 C 609.695312 385.878906 609.484375 386.574219 609.34375 387.289062 C 609.199219 388.003906 609.128906 388.726562 609.128906 389.457031 C 609.128906 390.1875 609.199219 390.90625 609.34375 391.625 C 609.484375 392.339844 609.695312 393.035156 609.976562 393.707031 C 610.253906 394.382812 610.597656 395.023438 611.003906 395.628906 C 611.40625 396.234375 611.867188 396.796875 612.386719 397.3125 C 612.902344 397.828125 613.464844 398.289062 614.070312 398.695312 C 614.675781 399.097656 615.316406 399.441406 615.992188 399.71875 C 616.667969 400 617.363281 400.210938 618.078125 400.351562 C 618.792969 400.496094 619.515625 400.566406 620.246094 400.566406 C 620.976562 400.566406 621.699219 400.496094 622.414062 400.351562 C 623.132812 400.210938 623.828125 400 624.5 399.71875 C 625.175781 399.441406 625.816406 399.097656 626.425781 398.695312 C 627.03125 398.289062 627.59375 397.828125 628.109375 397.3125 C 628.625 396.796875 629.085938 396.234375 629.492188 395.628906 C 629.898438 395.023438 630.238281 394.382812 630.519531 393.707031 C 630.796875 393.035156 631.007812 392.339844 631.152344 391.625 C 631.292969 390.90625 631.363281 390.1875 631.363281 389.457031 C 631.363281 388.726562 631.292969 388.003906 631.148438 387.289062 C 631.007812 386.574219 630.796875 385.878906 630.515625 385.207031 C 630.234375 384.53125 629.894531 383.894531 629.488281 383.285156 C 629.082031 382.679688 628.621094 382.121094 628.105469 381.605469 C 627.589844 381.089844 627.027344 380.628906 626.421875 380.222656 C 625.8125 379.816406 625.171875 379.476562 624.5 379.195312 C 623.824219 378.914062 623.128906 378.703125 622.414062 378.5625 C 621.699219 378.417969 620.976562 378.347656 620.246094 378.347656 Z M 620.246094 378.347656 " fill-opacity="1" fill-rule="nonzero"/><path fill="#58bf81" d="M 632.105469 476.113281 C 632.105469 476.890625 632.03125 477.660156 631.878906 478.425781 C 631.726562 479.1875 631.5 479.929688 631.203125 480.648438 C 630.90625 481.367188 630.539062 482.050781 630.109375 482.695312 C 629.675781 483.34375 629.183594 483.941406 628.632812 484.492188 C 628.082031 485.042969 627.484375 485.535156 626.835938 485.964844 C 626.1875 486.398438 625.503906 486.765625 624.785156 487.0625 C 624.066406 487.359375 623.324219 487.585938 622.558594 487.734375 C 621.796875 487.886719 621.027344 487.964844 620.246094 487.964844 C 619.46875 487.964844 618.695312 487.886719 617.933594 487.734375 C 617.167969 487.585938 616.429688 487.359375 615.707031 487.0625 C 614.988281 486.765625 614.304688 486.398438 613.65625 485.964844 C 613.011719 485.535156 612.410156 485.042969 611.859375 484.492188 C 611.308594 483.941406 610.820312 483.34375 610.386719 482.695312 C 609.953125 482.050781 609.589844 481.367188 609.289062 480.648438 C 608.992188 479.929688 608.765625 479.1875 608.617188 478.425781 C 608.464844 477.660156 608.386719 476.890625 608.386719 476.113281 C 608.386719 475.335938 608.464844 474.5625 608.617188 473.800781 C 608.765625 473.039062 608.992188 472.296875 609.289062 471.578125 C 609.589844 470.859375 609.953125 470.175781 610.386719 469.53125 C 610.820312 468.882812 611.308594 468.285156 611.859375 467.734375 C 612.410156 467.183594 613.011719 466.691406 613.65625 466.261719 C 614.304688 465.828125 614.988281 465.460938 615.707031 465.164062 C 616.429688 464.867188 617.167969 464.640625 617.933594 464.492188 C 618.695312 464.339844 619.46875 464.261719 620.246094 464.261719 C 621.027344 464.261719 621.796875 464.339844 622.558594 464.492188 C 623.324219 464.640625 624.066406 464.867188 624.785156 465.164062 C 625.503906 465.460938 626.1875 465.828125 626.835938 466.261719 C 627.484375 466.691406 628.082031 467.183594 628.632812 467.734375 C 629.183594 468.285156 629.675781 468.882812 630.109375 469.53125 C 630.539062 470.175781 630.90625 470.859375 631.203125 471.578125 C 631.5 472.296875 631.726562 473.039062 631.878906 473.800781 C 632.03125 474.5625 632.105469 475.335938 632.105469 476.113281 Z M 632.105469 476.113281 " fill-opacity="1" fill-rule="nonzero"/><path fill="#3f3d56" d="M 422.34375 488.703125 C 421.515625 488.703125 420.699219 488.625 419.886719 488.460938 C 419.074219 488.300781 418.285156 488.0625 417.523438 487.746094 C 416.757812 487.429688 416.03125 487.042969 415.34375 486.582031 C 414.65625 486.121094 414.019531 485.601562 413.433594 485.015625 C 412.847656 484.433594 412.328125 483.796875 411.867188 483.109375 C 411.40625 482.421875 411.019531 481.695312 410.703125 480.929688 C 410.386719 480.167969 410.148438 479.378906 409.984375 478.570312 C 409.824219 477.757812 409.742188 476.941406 409.742188 476.113281 C 409.742188 475.285156 409.824219 474.46875 409.984375 473.65625 C 410.148438 472.847656 410.386719 472.058594 410.703125 471.292969 C 411.019531 470.53125 411.40625 469.804688 411.867188 469.117188 C 412.328125 468.429688 412.847656 467.792969 413.433594 467.210938 C 414.019531 466.625 414.65625 466.101562 415.34375 465.644531 C 416.03125 465.183594 416.757812 464.796875 417.523438 464.480469 C 418.285156 464.164062 419.074219 463.925781 419.886719 463.765625 C 420.699219 463.601562 421.515625 463.523438 422.34375 463.523438 C 423.171875 463.523438 423.992188 463.601562 424.800781 463.765625 C 425.613281 463.925781 426.402344 464.164062 427.167969 464.480469 C 427.929688 464.796875 428.65625 465.183594 429.34375 465.644531 C 430.03125 466.101562 430.667969 466.625 431.253906 467.210938 C 431.839844 467.792969 432.363281 468.429688 432.820312 469.117188 C 433.28125 469.804688 433.667969 470.53125 433.984375 471.292969 C 434.300781 472.058594 434.542969 472.847656 434.703125 473.65625 C 434.863281 474.46875 434.945312 475.285156 434.945312 476.113281 C 434.945312 476.941406 434.863281 477.757812 434.699219 478.570312 C 434.539062 479.378906 434.300781 480.164062 433.980469 480.929688 C 433.664062 481.691406 433.277344 482.417969 432.816406 483.105469 C 432.355469 483.792969 431.835938 484.429688 431.25 485.011719 C 430.664062 485.597656 430.027344 486.117188 429.339844 486.578125 C 428.652344 487.039062 427.929688 487.425781 427.164062 487.742188 C 426.398438 488.058594 425.613281 488.296875 424.800781 488.460938 C 423.992188 488.621094 423.171875 488.703125 422.34375 488.703125 Z M 422.34375 465.003906 C 421.613281 465.003906 420.890625 465.074219 420.175781 465.214844 C 419.460938 465.359375 418.765625 465.570312 418.089844 465.847656 C 417.414062 466.128906 416.773438 466.46875 416.167969 466.875 C 415.5625 467.28125 415 467.742188 414.484375 468.257812 C 413.964844 468.773438 413.503906 469.335938 413.101562 469.941406 C 412.695312 470.546875 412.351562 471.1875 412.074219 471.863281 C 411.792969 472.535156 411.582031 473.230469 411.441406 473.945312 C 411.296875 474.660156 411.226562 475.382812 411.226562 476.113281 C 411.226562 476.84375 411.296875 477.566406 411.441406 478.28125 C 411.582031 478.996094 411.792969 479.691406 412.074219 480.363281 C 412.351562 481.039062 412.695312 481.679688 413.101562 482.285156 C 413.503906 482.890625 413.964844 483.453125 414.484375 483.96875 C 415 484.484375 415.5625 484.945312 416.167969 485.351562 C 416.773438 485.757812 417.414062 486.097656 418.089844 486.378906 C 418.765625 486.65625 419.460938 486.867188 420.175781 487.007812 C 420.890625 487.152344 421.613281 487.222656 422.34375 487.222656 C 423.074219 487.222656 423.796875 487.152344 424.511719 487.007812 C 425.230469 486.867188 425.925781 486.65625 426.597656 486.378906 C 427.273438 486.097656 427.914062 485.757812 428.519531 485.351562 C 429.128906 484.945312 429.691406 484.484375 430.207031 483.96875 C 430.722656 483.453125 431.183594 482.890625 431.589844 482.285156 C 431.996094 481.679688 432.335938 481.039062 432.617188 480.363281 C 432.894531 479.691406 433.105469 478.996094 433.25 478.28125 C 433.390625 477.566406 433.460938 476.84375 433.460938 476.113281 C 433.460938 475.382812 433.390625 474.660156 433.246094 473.945312 C 433.105469 473.230469 432.894531 472.535156 432.613281 471.863281 C 432.332031 471.191406 431.992188 470.550781 431.585938 469.945312 C 431.179688 469.335938 430.71875 468.777344 430.203125 468.261719 C 429.6875 467.746094 429.125 467.285156 428.519531 466.878906 C 427.910156 466.472656 427.269531 466.132812 426.597656 465.851562 C 425.921875 465.574219 425.226562 465.363281 424.511719 465.21875 C 423.796875 465.074219 423.074219 465.003906 422.34375 465.003906 Z M 422.34375 465.003906 " fill-opacity="1" fill-rule="nonzero"/><path fill="#3f3d56" d="M 569.105469 394.640625 C 568.277344 394.640625 567.457031 394.558594 566.644531 394.398438 C 565.832031 394.238281 565.046875 394 564.28125 393.683594 C 563.515625 393.367188 562.789062 392.976562 562.101562 392.519531 C 561.414062 392.058594 560.777344 391.539062 560.195312 390.953125 C 559.609375 390.367188 559.085938 389.730469 558.625 389.042969 C 558.167969 388.359375 557.777344 387.632812 557.460938 386.867188 C 557.144531 386.105469 556.90625 385.316406 556.746094 384.507812 C 556.582031 383.695312 556.503906 382.875 556.503906 382.050781 C 556.503906 381.222656 556.582031 380.402344 556.746094 379.59375 C 556.90625 378.78125 557.144531 377.996094 557.460938 377.230469 C 557.777344 376.46875 558.167969 375.742188 558.625 375.054688 C 559.085938 374.367188 559.609375 373.730469 560.195312 373.144531 C 560.777344 372.5625 561.414062 372.039062 562.101562 371.582031 C 562.789062 371.121094 563.515625 370.734375 564.28125 370.417969 C 565.046875 370.101562 565.832031 369.863281 566.644531 369.699219 C 567.457031 369.539062 568.277344 369.457031 569.105469 369.457031 C 569.929688 369.457031 570.75 369.539062 571.5625 369.699219 C 572.375 369.863281 573.160156 370.101562 573.925781 370.417969 C 574.691406 370.734375 575.417969 371.121094 576.105469 371.582031 C 576.792969 372.039062 577.429688 372.5625 578.011719 373.144531 C 578.597656 373.730469 579.121094 374.367188 579.582031 375.054688 C 580.039062 375.742188 580.429688 376.46875 580.746094 377.230469 C 581.0625 377.996094 581.300781 378.78125 581.460938 379.59375 C 581.625 380.402344 581.703125 381.222656 581.703125 382.050781 C 581.703125 382.875 581.621094 383.695312 581.460938 384.503906 C 581.296875 385.316406 581.058594 386.101562 580.742188 386.867188 C 580.425781 387.628906 580.035156 388.355469 579.578125 389.042969 C 579.117188 389.730469 578.59375 390.363281 578.007812 390.949219 C 577.425781 391.53125 576.789062 392.054688 576.101562 392.515625 C 575.414062 392.972656 574.6875 393.363281 573.921875 393.679688 C 573.160156 393.996094 572.371094 394.234375 571.5625 394.398438 C 570.75 394.558594 569.929688 394.640625 569.105469 394.640625 Z M 569.105469 370.941406 C 568.375 370.941406 567.652344 371.011719 566.933594 371.152344 C 566.21875 371.296875 565.523438 371.507812 564.847656 371.785156 C 564.175781 372.066406 563.535156 372.40625 562.925781 372.8125 C 562.320312 373.21875 561.757812 373.679688 561.242188 374.195312 C 560.726562 374.710938 560.265625 375.269531 559.859375 375.878906 C 559.453125 376.484375 559.109375 377.125 558.832031 377.796875 C 558.550781 378.472656 558.339844 379.167969 558.199219 379.882812 C 558.058594 380.597656 557.984375 381.320312 557.984375 382.050781 C 557.984375 382.777344 558.058594 383.5 558.199219 384.21875 C 558.339844 384.933594 558.550781 385.628906 558.832031 386.300781 C 559.109375 386.976562 559.453125 387.617188 559.859375 388.222656 C 560.265625 388.828125 560.726562 389.390625 561.242188 389.90625 C 561.757812 390.421875 562.320312 390.882812 562.925781 391.285156 C 563.535156 391.691406 564.175781 392.035156 564.847656 392.3125 C 565.523438 392.59375 566.21875 392.804688 566.933594 392.945312 C 567.652344 393.089844 568.375 393.160156 569.105469 393.160156 C 569.832031 393.160156 570.554688 393.089844 571.273438 392.945312 C 571.988281 392.804688 572.683594 392.59375 573.359375 392.3125 C 574.03125 392.035156 574.671875 391.691406 575.28125 391.285156 C 575.886719 390.882812 576.449219 390.421875 576.964844 389.90625 C 577.480469 389.390625 577.941406 388.828125 578.347656 388.222656 C 578.753906 387.617188 579.097656 386.976562 579.375 386.300781 C 579.65625 385.628906 579.867188 384.933594 580.007812 384.21875 C 580.152344 383.5 580.222656 382.777344 580.222656 382.050781 C 580.222656 381.320312 580.148438 380.597656 580.007812 379.882812 C 579.863281 379.167969 579.652344 378.472656 579.371094 377.800781 C 579.09375 377.125 578.75 376.488281 578.34375 375.878906 C 577.9375 375.273438 577.476562 374.714844 576.960938 374.199219 C 576.445312 373.683594 575.882812 373.222656 575.277344 372.816406 C 574.671875 372.410156 574.03125 372.066406 573.355469 371.789062 C 572.683594 371.507812 571.988281 371.296875 571.273438 371.15625 C 570.554688 371.011719 569.832031 370.941406 569.105469 370.941406 Z M 569.105469 370.941406 " fill-opacity="1" fill-rule="nonzero"/><path fill="#3f3d56" d="M 224.441406 364.273438 C 223.46875 364.273438 222.503906 364.367188 221.550781 364.558594 C 220.59375 364.75 219.667969 365.027344 218.769531 365.402344 C 217.871094 365.773438 217.015625 366.230469 216.207031 366.769531 C 215.398438 367.3125 214.648438 367.925781 213.960938 368.613281 C 213.269531 369.300781 212.65625 370.046875 212.117188 370.855469 C 211.574219 371.667969 211.117188 372.519531 210.746094 373.417969 C 210.375 374.316406 210.09375 375.242188 209.902344 376.195312 C 209.710938 377.152344 209.617188 378.113281 209.617188 379.085938 C 209.617188 380.058594 209.710938 381.023438 209.902344 381.976562 C 210.09375 382.929688 210.375 383.855469 210.746094 384.753906 C 211.117188 385.65625 211.574219 386.507812 212.117188 387.316406 C 212.65625 388.125 213.269531 388.875 213.960938 389.5625 C 214.648438 390.25 215.398438 390.863281 216.207031 391.402344 C 217.015625 391.945312 217.871094 392.402344 218.769531 392.773438 C 219.667969 393.144531 220.59375 393.425781 221.550781 393.617188 C 222.503906 393.804688 223.46875 393.898438 224.441406 393.898438 C 225.414062 393.898438 226.378906 393.804688 227.332031 393.617188 C 228.289062 393.425781 229.214844 393.144531 230.113281 392.773438 C 231.015625 392.402344 231.867188 391.945312 232.675781 391.402344 C 233.488281 390.863281 234.234375 390.25 234.925781 389.5625 C 235.613281 388.875 236.226562 388.125 236.765625 387.316406 C 237.308594 386.507812 237.765625 385.65625 238.136719 384.753906 C 238.511719 383.855469 238.792969 382.929688 238.980469 381.976562 C 239.171875 381.023438 239.265625 380.058594 239.265625 379.085938 C 239.261719 378.117188 239.164062 377.152344 238.972656 376.199219 C 238.78125 375.246094 238.5 374.324219 238.125 373.425781 C 237.753906 372.527344 237.296875 371.675781 236.753906 370.867188 C 236.214844 370.058594 235.597656 369.3125 234.910156 368.625 C 234.222656 367.9375 233.476562 367.324219 232.667969 366.785156 C 231.859375 366.242188 231.007812 365.785156 230.109375 365.414062 C 229.210938 365.039062 228.285156 364.757812 227.332031 364.566406 C 226.378906 364.375 225.414062 364.277344 224.441406 364.273438 Z M 224.441406 368.71875 C 224.734375 368.71875 225.023438 368.746094 225.308594 368.804688 C 225.597656 368.859375 225.875 368.945312 226.144531 369.054688 C 226.414062 369.167969 226.667969 369.304688 226.914062 369.46875 C 227.15625 369.628906 227.378906 369.8125 227.585938 370.019531 C 227.792969 370.226562 227.976562 370.449219 228.140625 370.691406 C 228.300781 370.933594 228.4375 371.191406 228.550781 371.460938 C 228.664062 371.730469 228.746094 372.007812 228.804688 372.292969 C 228.859375 372.582031 228.890625 372.871094 228.890625 373.160156 C 228.890625 373.453125 228.859375 373.742188 228.804688 374.027344 C 228.746094 374.316406 228.664062 374.59375 228.550781 374.863281 C 228.4375 375.132812 228.300781 375.386719 228.140625 375.628906 C 227.976562 375.875 227.792969 376.097656 227.585938 376.304688 C 227.378906 376.511719 227.15625 376.695312 226.914062 376.855469 C 226.667969 377.019531 226.414062 377.15625 226.144531 377.265625 C 225.875 377.378906 225.597656 377.464844 225.308594 377.519531 C 225.023438 377.578125 224.734375 377.605469 224.441406 377.605469 C 224.148438 377.605469 223.859375 377.578125 223.574219 377.519531 C 223.289062 377.464844 223.007812 377.378906 222.738281 377.265625 C 222.46875 377.15625 222.214844 377.019531 221.972656 376.855469 C 221.726562 376.695312 221.503906 376.511719 221.296875 376.304688 C 221.089844 376.097656 220.90625 375.875 220.742188 375.628906 C 220.582031 375.386719 220.445312 375.132812 220.332031 374.863281 C 220.222656 374.59375 220.136719 374.316406 220.078125 374.027344 C 220.023438 373.742188 219.996094 373.453125 219.996094 373.160156 C 219.996094 372.871094 220.023438 372.582031 220.082031 372.296875 C 220.140625 372.011719 220.226562 371.734375 220.335938 371.464844 C 220.449219 371.195312 220.585938 370.9375 220.75 370.695312 C 220.910156 370.453125 221.09375 370.230469 221.300781 370.023438 C 221.507812 369.816406 221.730469 369.632812 221.972656 369.472656 C 222.21875 369.308594 222.472656 369.171875 222.742188 369.058594 C 223.011719 368.949219 223.289062 368.863281 223.574219 368.804688 C 223.859375 368.75 224.148438 368.71875 224.441406 368.71875 Z M 224.441406 390.113281 C 223.5625 390.109375 222.699219 389.996094 221.847656 389.78125 C 220.996094 389.566406 220.179688 389.253906 219.40625 388.839844 C 218.632812 388.425781 217.917969 387.925781 217.265625 387.339844 C 216.613281 386.753906 216.039062 386.09375 215.546875 385.367188 C 215.617188 382.40625 221.476562 380.773438 224.441406 380.773438 C 227.40625 380.773438 233.265625 382.40625 233.335938 385.367188 C 232.84375 386.09375 232.269531 386.75 231.617188 387.339844 C 230.964844 387.925781 230.25 388.425781 229.476562 388.839844 C 228.699219 389.25 227.886719 389.566406 227.035156 389.78125 C 226.183594 389.996094 225.320312 390.105469 224.441406 390.113281 Z M 224.441406 390.113281 " fill-opacity="1" fill-rule="nonzero"/><path fill="#3f3d56" d="M 275.585938 162.074219 C 274.613281 162.074219 273.648438 162.167969 272.691406 162.359375 C 271.738281 162.550781 270.8125 162.828125 269.910156 163.203125 C 269.011719 163.574219 268.160156 164.03125 267.347656 164.570312 C 266.539062 165.109375 265.792969 165.726562 265.101562 166.414062 C 264.414062 167.101562 263.800781 167.847656 263.257812 168.65625 C 262.71875 169.464844 262.261719 170.320312 261.890625 171.21875 C 261.515625 172.117188 261.234375 173.042969 261.046875 173.996094 C 260.855469 174.953125 260.761719 175.914062 260.761719 176.886719 C 260.761719 177.859375 260.855469 178.824219 261.046875 179.777344 C 261.234375 180.730469 261.515625 181.65625 261.890625 182.554688 C 262.261719 183.453125 262.71875 184.308594 263.257812 185.117188 C 263.800781 185.925781 264.414062 186.675781 265.101562 187.363281 C 265.792969 188.050781 266.539062 188.664062 267.347656 189.203125 C 268.160156 189.746094 269.011719 190.199219 269.910156 190.574219 C 270.8125 190.945312 271.738281 191.226562 272.691406 191.417969 C 273.648438 191.605469 274.613281 191.699219 275.585938 191.699219 C 276.558594 191.699219 277.523438 191.605469 278.476562 191.417969 C 279.433594 191.226562 280.359375 190.945312 281.257812 190.574219 C 282.15625 190.199219 283.011719 189.746094 283.820312 189.203125 C 284.628906 188.664062 285.378906 188.050781 286.066406 187.363281 C 286.753906 186.675781 287.371094 185.925781 287.910156 185.117188 C 288.453125 184.308594 288.910156 183.453125 289.28125 182.554688 C 289.652344 181.65625 289.933594 180.730469 290.125 179.777344 C 290.3125 178.824219 290.410156 177.859375 290.410156 176.886719 C 290.40625 175.914062 290.308594 174.953125 290.117188 174 C 289.925781 173.046875 289.644531 172.121094 289.269531 171.226562 C 288.894531 170.328125 288.4375 169.476562 287.898438 168.667969 C 287.355469 167.859375 286.742188 167.113281 286.054688 166.425781 C 285.367188 165.738281 284.617188 165.125 283.8125 164.585938 C 283.003906 164.042969 282.148438 163.585938 281.25 163.214844 C 280.351562 162.839844 279.425781 162.558594 278.472656 162.367188 C 277.519531 162.175781 276.558594 162.078125 275.585938 162.074219 Z M 275.585938 166.519531 C 275.878906 166.519531 276.167969 166.546875 276.453125 166.605469 C 276.738281 166.660156 277.015625 166.746094 277.285156 166.855469 C 277.558594 166.96875 277.8125 167.105469 278.054688 167.265625 C 278.296875 167.429688 278.523438 167.613281 278.730469 167.820312 C 278.9375 168.027344 279.121094 168.25 279.28125 168.492188 C 279.445312 168.734375 279.582031 168.992188 279.695312 169.261719 C 279.804688 169.53125 279.890625 169.808594 279.945312 170.09375 C 280.003906 170.382812 280.03125 170.671875 280.03125 170.960938 C 280.03125 171.253906 280.003906 171.542969 279.945312 171.828125 C 279.890625 172.117188 279.804688 172.394531 279.695312 172.664062 C 279.582031 172.933594 279.445312 173.1875 279.28125 173.429688 C 279.121094 173.675781 278.9375 173.898438 278.730469 174.105469 C 278.523438 174.3125 278.296875 174.496094 278.054688 174.65625 C 277.8125 174.820312 277.558594 174.957031 277.285156 175.066406 C 277.015625 175.179688 276.738281 175.265625 276.453125 175.320312 C 276.167969 175.378906 275.878906 175.40625 275.585938 175.40625 C 275.292969 175.40625 275.003906 175.378906 274.71875 175.320312 C 274.429688 175.265625 274.152344 175.179688 273.882812 175.066406 C 273.613281 174.957031 273.355469 174.820312 273.113281 174.65625 C 272.871094 174.496094 272.648438 174.3125 272.441406 174.105469 C 272.234375 173.898438 272.050781 173.675781 271.886719 173.429688 C 271.726562 173.1875 271.589844 172.933594 271.476562 172.664062 C 271.363281 172.394531 271.28125 172.117188 271.222656 171.828125 C 271.167969 171.542969 271.136719 171.253906 271.136719 170.960938 C 271.140625 170.671875 271.167969 170.382812 271.226562 170.097656 C 271.285156 169.8125 271.367188 169.53125 271.480469 169.265625 C 271.59375 168.996094 271.730469 168.738281 271.890625 168.496094 C 272.054688 168.253906 272.238281 168.03125 272.445312 167.824219 C 272.652344 167.617188 272.875 167.433594 273.117188 167.273438 C 273.359375 167.109375 273.617188 166.972656 273.886719 166.859375 C 274.15625 166.75 274.433594 166.664062 274.71875 166.605469 C 275.003906 166.546875 275.292969 166.519531 275.585938 166.519531 Z M 275.585938 187.910156 C 274.707031 187.90625 273.839844 187.796875 272.988281 187.582031 C 272.136719 187.367188 271.324219 187.054688 270.550781 186.640625 C 269.773438 186.226562 269.0625 185.726562 268.410156 185.140625 C 267.753906 184.554688 267.183594 183.894531 266.691406 183.167969 C 266.761719 180.207031 272.621094 178.574219 275.585938 178.574219 C 278.550781 178.574219 284.410156 180.207031 284.480469 183.167969 C 283.988281 183.894531 283.414062 184.550781 282.761719 185.140625 C 282.109375 185.726562 281.394531 186.226562 280.617188 186.640625 C 279.84375 187.050781 279.03125 187.367188 278.179688 187.582031 C 277.328125 187.796875 276.464844 187.90625 275.585938 187.910156 Z M 275.585938 187.910156 " fill-opacity="1" fill-rule="nonzero"/><g clip-path="url(#2587f950d7)"><path fill="#3f3d56" d="M 555.019531 110.96875 C 554.046875 110.96875 553.082031 111.0625 552.128906 111.253906 C 551.171875 111.445312 550.246094 111.722656 549.347656 112.097656 C 548.449219 112.46875 547.59375 112.925781 546.785156 113.464844 C 545.976562 114.007812 545.226562 114.621094 544.539062 115.308594 C 543.851562 115.996094 543.234375 116.742188 542.695312 117.550781 C 542.152344 118.359375 541.695312 119.214844 541.324219 120.113281 C 540.953125 121.011719 540.671875 121.9375 540.480469 122.890625 C 540.292969 123.847656 540.195312 124.808594 540.195312 125.78125 C 540.195312 126.753906 540.292969 127.71875 540.480469 128.671875 C 540.671875 129.625 540.953125 130.550781 541.324219 131.449219 C 541.695312 132.347656 542.152344 133.203125 542.695312 134.011719 C 543.234375 134.820312 543.851562 135.570312 544.539062 136.257812 C 545.226562 136.945312 545.976562 137.558594 546.785156 138.097656 C 547.59375 138.640625 548.449219 139.09375 549.347656 139.46875 C 550.246094 139.839844 551.171875 140.121094 552.128906 140.3125 C 553.082031 140.5 554.046875 140.59375 555.019531 140.59375 C 555.992188 140.59375 556.957031 140.5 557.914062 140.3125 C 558.867188 140.121094 559.792969 139.839844 560.695312 139.46875 C 561.59375 139.09375 562.445312 138.640625 563.257812 138.097656 C 564.066406 137.558594 564.8125 136.945312 565.503906 136.257812 C 566.191406 135.570312 566.804688 134.820312 567.347656 134.011719 C 567.886719 133.203125 568.34375 132.347656 568.714844 131.449219 C 569.089844 130.550781 569.371094 129.625 569.558594 128.671875 C 569.75 127.71875 569.84375 126.753906 569.84375 125.78125 C 569.84375 124.808594 569.746094 123.847656 569.550781 122.894531 C 569.359375 121.941406 569.078125 121.015625 568.703125 120.121094 C 568.332031 119.222656 567.875 118.371094 567.332031 117.5625 C 566.792969 116.753906 566.179688 116.007812 565.488281 115.320312 C 564.800781 114.632812 564.054688 114.019531 563.246094 113.480469 C 562.4375 112.9375 561.585938 112.480469 560.6875 112.109375 C 559.789062 111.734375 558.863281 111.453125 557.910156 111.261719 C 556.957031 111.070312 555.992188 110.972656 555.019531 110.96875 Z M 555.019531 115.414062 C 555.3125 115.414062 555.601562 115.441406 555.886719 115.5 C 556.175781 115.554688 556.453125 115.640625 556.722656 115.75 C 556.992188 115.863281 557.25 116 557.492188 116.160156 C 557.734375 116.324219 557.957031 116.507812 558.164062 116.714844 C 558.371094 116.921875 558.554688 117.144531 558.71875 117.386719 C 558.878906 117.628906 559.015625 117.886719 559.128906 118.15625 C 559.242188 118.425781 559.324219 118.703125 559.382812 118.988281 C 559.4375 119.277344 559.46875 119.566406 559.46875 119.855469 C 559.46875 120.148438 559.4375 120.4375 559.382812 120.722656 C 559.324219 121.011719 559.242188 121.289062 559.128906 121.558594 C 559.015625 121.828125 558.878906 122.082031 558.71875 122.324219 C 558.554688 122.570312 558.371094 122.792969 558.164062 123 C 557.957031 123.207031 557.734375 123.390625 557.492188 123.550781 C 557.25 123.714844 556.992188 123.851562 556.722656 123.960938 C 556.453125 124.074219 556.175781 124.160156 555.886719 124.214844 C 555.601562 124.273438 555.3125 124.300781 555.019531 124.300781 C 554.726562 124.300781 554.4375 124.273438 554.152344 124.214844 C 553.867188 124.160156 553.589844 124.074219 553.320312 123.960938 C 553.046875 123.851562 552.792969 123.714844 552.550781 123.550781 C 552.308594 123.390625 552.082031 123.207031 551.875 123 C 551.667969 122.792969 551.484375 122.570312 551.324219 122.324219 C 551.160156 122.082031 551.023438 121.828125 550.910156 121.558594 C 550.800781 121.289062 550.714844 121.011719 550.660156 120.722656 C 550.601562 120.4375 550.574219 120.148438 550.574219 119.855469 C 550.574219 119.566406 550.605469 119.277344 550.660156 118.992188 C 550.71875 118.707031 550.804688 118.429688 550.914062 118.160156 C 551.027344 117.890625 551.164062 117.632812 551.328125 117.390625 C 551.488281 117.148438 551.675781 116.925781 551.878906 116.71875 C 552.085938 116.511719 552.3125 116.328125 552.554688 116.167969 C 552.796875 116.003906 553.050781 115.867188 553.320312 115.753906 C 553.589844 115.644531 553.867188 115.558594 554.152344 115.5 C 554.441406 115.441406 554.730469 115.414062 555.019531 115.414062 Z M 555.019531 136.808594 C 554.140625 136.800781 553.277344 136.691406 552.425781 136.476562 C 551.574219 136.261719 550.761719 135.949219 549.984375 135.535156 C 549.210938 135.121094 548.496094 134.621094 547.84375 134.035156 C 547.191406 133.449219 546.617188 132.789062 546.125 132.0625 C 546.195312 129.101562 552.054688 127.46875 555.019531 127.46875 C 557.984375 127.46875 563.84375 129.101562 563.914062 132.0625 C 563.421875 132.789062 562.847656 133.445312 562.195312 134.035156 C 561.542969 134.621094 560.828125 135.121094 560.054688 135.535156 C 559.28125 135.945312 558.464844 136.261719 557.613281 136.476562 C 556.765625 136.691406 555.898438 136.800781 555.019531 136.808594 Z M 555.019531 136.808594 " fill-opacity="1" fill-rule="nonzero"/></g><path fill="#3f3d56" d="M 725.5 273.171875 C 724.523438 273.171875 723.5625 273.269531 722.605469 273.457031 C 721.652344 273.648438 720.722656 273.929688 719.824219 274.300781 C 718.925781 274.671875 718.070312 275.128906 717.261719 275.667969 C 716.453125 276.210938 715.703125 276.824219 715.015625 277.511719 C 714.328125 278.199219 713.714844 278.949219 713.171875 279.757812 C 712.632812 280.566406 712.175781 281.417969 711.800781 282.316406 C 711.429688 283.214844 711.148438 284.140625 710.957031 285.097656 C 710.769531 286.050781 710.675781 287.011719 710.675781 287.984375 C 710.675781 288.957031 710.769531 289.921875 710.957031 290.875 C 711.148438 291.828125 711.429688 292.757812 711.800781 293.65625 C 712.175781 294.554688 712.632812 295.40625 713.171875 296.214844 C 713.714844 297.023438 714.328125 297.773438 715.015625 298.460938 C 715.703125 299.148438 716.453125 299.761719 717.261719 300.304688 C 718.070312 300.84375 718.925781 301.300781 719.824219 301.671875 C 720.726562 302.042969 721.652344 302.324219 722.605469 302.515625 C 723.5625 302.703125 724.523438 302.800781 725.5 302.800781 C 726.472656 302.800781 727.4375 302.703125 728.390625 302.515625 C 729.34375 302.324219 730.273438 302.042969 731.171875 301.671875 C 732.070312 301.300781 732.925781 300.84375 733.734375 300.304688 C 734.542969 299.761719 735.292969 299.148438 735.980469 298.460938 C 736.667969 297.773438 737.285156 297.023438 737.824219 296.214844 C 738.363281 295.40625 738.820312 294.554688 739.195312 293.65625 C 739.566406 292.757812 739.847656 291.828125 740.039062 290.875 C 740.226562 289.921875 740.324219 288.957031 740.324219 287.984375 C 740.320312 287.015625 740.222656 286.050781 740.03125 285.097656 C 739.839844 284.148438 739.554688 283.222656 739.183594 282.324219 C 738.808594 281.425781 738.351562 280.574219 737.8125 279.765625 C 737.269531 278.960938 736.65625 278.210938 735.96875 277.523438 C 735.28125 276.835938 734.53125 276.222656 733.722656 275.683594 C 732.914062 275.140625 732.0625 274.683594 731.164062 274.3125 C 730.265625 273.9375 729.339844 273.65625 728.386719 273.464844 C 727.433594 273.273438 726.472656 273.175781 725.5 273.171875 Z M 725.5 277.617188 C 725.789062 277.617188 726.078125 277.644531 726.367188 277.703125 C 726.652344 277.757812 726.929688 277.84375 727.199219 277.957031 C 727.46875 278.066406 727.726562 278.203125 727.96875 278.367188 C 728.210938 278.527344 728.4375 278.710938 728.644531 278.917969 C 728.847656 279.125 729.035156 279.347656 729.195312 279.59375 C 729.359375 279.835938 729.496094 280.089844 729.605469 280.359375 C 729.71875 280.628906 729.804688 280.90625 729.859375 281.195312 C 729.917969 281.480469 729.945312 281.769531 729.945312 282.0625 C 729.945312 282.351562 729.917969 282.640625 729.859375 282.929688 C 729.804688 283.214844 729.71875 283.492188 729.605469 283.761719 C 729.496094 284.03125 729.359375 284.289062 729.195312 284.53125 C 729.035156 284.773438 728.847656 284.996094 728.644531 285.203125 C 728.4375 285.410156 728.210938 285.59375 727.96875 285.757812 C 727.726562 285.917969 727.46875 286.054688 727.199219 286.167969 C 726.929688 286.277344 726.652344 286.363281 726.367188 286.417969 C 726.078125 286.476562 725.789062 286.503906 725.5 286.503906 C 725.207031 286.503906 724.917969 286.476562 724.628906 286.417969 C 724.34375 286.363281 724.066406 286.277344 723.796875 286.167969 C 723.527344 286.054688 723.269531 285.917969 723.027344 285.757812 C 722.785156 285.59375 722.558594 285.410156 722.355469 285.203125 C 722.148438 284.996094 721.960938 284.773438 721.800781 284.53125 C 721.636719 284.289062 721.5 284.03125 721.390625 283.761719 C 721.277344 283.492188 721.195312 283.214844 721.136719 282.929688 C 721.078125 282.640625 721.050781 282.351562 721.050781 282.0625 C 721.050781 281.769531 721.082031 281.480469 721.140625 281.195312 C 721.195312 280.910156 721.28125 280.632812 721.394531 280.363281 C 721.503906 280.09375 721.644531 279.835938 721.804688 279.59375 C 721.96875 279.351562 722.152344 279.128906 722.359375 278.921875 C 722.5625 278.71875 722.789062 278.53125 723.03125 278.371094 C 723.273438 278.207031 723.53125 278.070312 723.796875 277.960938 C 724.066406 277.847656 724.34375 277.761719 724.632812 277.703125 C 724.917969 277.648438 725.207031 277.617188 725.5 277.617188 Z M 725.5 299.011719 C 724.621094 299.007812 723.753906 298.898438 722.902344 298.683594 C 722.050781 298.46875 721.238281 298.152344 720.464844 297.738281 C 719.6875 297.328125 718.972656 296.828125 718.320312 296.238281 C 717.667969 295.652344 717.097656 294.996094 716.605469 294.265625 C 716.675781 291.304688 722.535156 289.675781 725.5 289.675781 C 728.464844 289.675781 734.320312 291.304688 734.394531 294.265625 C 733.898438 294.992188 733.328125 295.652344 732.675781 296.238281 C 732.019531 296.824219 731.308594 297.324219 730.53125 297.738281 C 729.757812 298.152344 728.945312 298.464844 728.09375 298.679688 C 727.242188 298.894531 726.375 299.003906 725.5 299.011719 Z M 725.5 299.011719 " fill-opacity="1" fill-rule="nonzero"/><g clip-path="url(#48e9ee1506)"><path fill="#3f3d56" d="M 753.664062 373.160156 C 752.691406 373.160156 751.726562 373.257812 750.773438 373.445312 C 749.816406 373.636719 748.890625 373.917969 747.992188 374.289062 C 747.09375 374.660156 746.238281 375.117188 745.429688 375.660156 C 744.617188 376.199219 743.871094 376.8125 743.183594 377.5 C 742.492188 378.1875 741.878906 378.9375 741.339844 379.746094 C 740.796875 380.554688 740.339844 381.40625 739.96875 382.304688 C 739.597656 383.203125 739.316406 384.132812 739.125 385.085938 C 738.933594 386.039062 738.839844 387.003906 738.839844 387.976562 C 738.839844 388.949219 738.933594 389.910156 739.125 390.863281 C 739.316406 391.820312 739.597656 392.746094 739.96875 393.644531 C 740.339844 394.542969 740.796875 395.394531 741.339844 396.203125 C 741.878906 397.011719 742.492188 397.761719 743.183594 398.449219 C 743.871094 399.136719 744.617188 399.75 745.429688 400.292969 C 746.238281 400.832031 747.09375 401.289062 747.992188 401.660156 C 748.890625 402.03125 749.816406 402.3125 750.773438 402.503906 C 751.726562 402.691406 752.691406 402.789062 753.664062 402.789062 C 754.636719 402.789062 755.601562 402.691406 756.554688 402.503906 C 757.511719 402.3125 758.4375 402.03125 759.335938 401.660156 C 760.238281 401.289062 761.089844 400.832031 761.898438 400.292969 C 762.710938 399.75 763.457031 399.136719 764.144531 398.449219 C 764.835938 397.761719 765.449219 397.011719 765.988281 396.203125 C 766.53125 395.394531 766.988281 394.542969 767.359375 393.644531 C 767.734375 392.746094 768.011719 391.820312 768.203125 390.863281 C 768.394531 389.910156 768.488281 388.949219 768.488281 387.976562 C 768.484375 387.003906 768.386719 386.039062 768.195312 385.089844 C 768.003906 384.136719 767.722656 383.210938 767.347656 382.3125 C 766.976562 381.414062 766.519531 380.5625 765.976562 379.753906 C 765.4375 378.949219 764.820312 378.199219 764.132812 377.511719 C 763.445312 376.824219 762.699219 376.210938 761.890625 375.671875 C 761.082031 375.132812 760.226562 374.675781 759.332031 374.300781 C 758.433594 373.929688 757.507812 373.644531 756.554688 373.453125 C 755.601562 373.261719 754.636719 373.164062 753.664062 373.160156 Z M 753.664062 377.605469 C 753.957031 377.605469 754.246094 377.632812 754.53125 377.691406 C 754.816406 377.75 755.097656 377.832031 755.367188 377.945312 C 755.636719 378.054688 755.890625 378.191406 756.136719 378.355469 C 756.378906 378.515625 756.601562 378.699219 756.808594 378.90625 C 757.015625 379.113281 757.199219 379.339844 757.363281 379.582031 C 757.523438 379.824219 757.660156 380.078125 757.773438 380.347656 C 757.882812 380.617188 757.96875 380.898438 758.027344 381.183594 C 758.082031 381.46875 758.113281 381.757812 758.113281 382.050781 C 758.113281 382.339844 758.082031 382.628906 758.027344 382.917969 C 757.96875 383.203125 757.882812 383.480469 757.773438 383.75 C 757.660156 384.019531 757.523438 384.277344 757.363281 384.519531 C 757.199219 384.761719 757.015625 384.984375 756.808594 385.191406 C 756.601562 385.398438 756.378906 385.582031 756.136719 385.746094 C 755.890625 385.90625 755.636719 386.042969 755.367188 386.15625 C 755.097656 386.265625 754.816406 386.351562 754.53125 386.410156 C 754.246094 386.464844 753.957031 386.492188 753.664062 386.492188 C 753.371094 386.492188 753.082031 386.464844 752.796875 386.410156 C 752.511719 386.351562 752.230469 386.265625 751.960938 386.15625 C 751.691406 386.042969 751.4375 385.90625 751.195312 385.746094 C 750.949219 385.582031 750.726562 385.398438 750.519531 385.191406 C 750.3125 384.984375 750.128906 384.761719 749.964844 384.519531 C 749.804688 384.277344 749.667969 384.019531 749.554688 383.75 C 749.445312 383.480469 749.359375 383.203125 749.300781 382.917969 C 749.246094 382.628906 749.21875 382.339844 749.21875 382.050781 C 749.21875 381.757812 749.246094 381.46875 749.304688 381.183594 C 749.363281 380.898438 749.449219 380.621094 749.558594 380.351562 C 749.671875 380.082031 749.808594 379.828125 749.972656 379.585938 C 750.132812 379.34375 750.316406 379.117188 750.523438 378.910156 C 750.730469 378.707031 750.953125 378.519531 751.195312 378.359375 C 751.441406 378.195312 751.695312 378.058594 751.964844 377.949219 C 752.234375 377.835938 752.511719 377.75 752.796875 377.695312 C 753.082031 377.636719 753.371094 377.605469 753.664062 377.605469 Z M 753.664062 399 C 752.785156 398.996094 751.921875 398.886719 751.070312 398.671875 C 750.21875 398.457031 749.402344 398.140625 748.628906 397.730469 C 747.855469 397.316406 747.140625 396.816406 746.488281 396.226562 C 745.835938 395.640625 745.261719 394.984375 744.769531 394.257812 C 744.839844 391.292969 750.699219 389.664062 753.664062 389.664062 C 756.628906 389.664062 762.488281 391.292969 762.558594 394.257812 C 762.066406 394.984375 761.492188 395.640625 760.839844 396.226562 C 760.1875 396.8125 759.472656 397.3125 758.699219 397.726562 C 757.921875 398.140625 757.109375 398.453125 756.257812 398.667969 C 755.40625 398.882812 754.542969 398.996094 753.664062 399 Z M 753.664062 399 " fill-opacity="1" fill-rule="nonzero"/></g><path fill="#58bf81" d="M 423.292969 372.914062 L 421.773438 379 C 423.496094 379.429688 428.800781 381.175781 429.660156 377.734375 C 430.558594 374.144531 425.011719 373.34375 423.292969 372.914062 Z M 423.292969 372.914062 " fill-opacity="1" fill-rule="nonzero"/><path fill="#58bf81" d="M 421.007812 382.070312 L 419.332031 388.777344 C 421.398438 389.292969 427.777344 391.339844 428.71875 387.554688 C 429.703125 383.605469 423.074219 382.585938 421.007812 382.070312 Z M 421.007812 382.070312 " fill-opacity="1" fill-rule="nonzero"/><path fill="#58bf81" d="M 430.15625 354.800781 C 429.273438 354.582031 428.382812 354.40625 427.480469 354.273438 C 426.582031 354.140625 425.675781 354.050781 424.765625 354.007812 C 423.859375 353.964844 422.949219 353.964844 422.039062 354.011719 C 421.128906 354.058594 420.226562 354.148438 419.324219 354.28125 C 418.425781 354.417969 417.535156 354.59375 416.652344 354.816406 C 415.769531 355.039062 414.898438 355.304688 414.042969 355.609375 C 413.1875 355.917969 412.347656 356.265625 411.523438 356.65625 C 410.703125 357.046875 409.902344 357.476562 409.121094 357.941406 C 408.339844 358.410156 407.585938 358.917969 406.855469 359.460938 C 406.125 360.003906 405.421875 360.578125 404.75 361.191406 C 404.074219 361.800781 403.433594 362.445312 402.824219 363.121094 C 402.210938 363.792969 401.636719 364.496094 401.09375 365.226562 C 400.554688 365.960938 400.050781 366.714844 399.582031 367.496094 C 399.113281 368.277344 398.6875 369.078125 398.300781 369.898438 C 397.910156 370.722656 397.5625 371.5625 397.257812 372.417969 C 396.953125 373.277344 396.6875 374.144531 396.46875 375.027344 C 396.25 375.910156 396.074219 376.800781 395.941406 377.699219 C 395.808594 378.601562 395.71875 379.503906 395.675781 380.414062 C 395.632812 381.320312 395.632812 382.230469 395.679688 383.136719 C 395.722656 384.046875 395.8125 384.949219 395.949219 385.851562 C 396.082031 386.75 396.261719 387.640625 396.484375 388.523438 C 396.707031 389.40625 396.96875 390.273438 397.277344 391.128906 C 397.585938 391.984375 397.933594 392.824219 398.324219 393.644531 C 398.714844 394.46875 399.144531 395.269531 399.613281 396.046875 C 400.082031 396.828125 400.585938 397.582031 401.128906 398.3125 C 401.671875 399.042969 402.25 399.742188 402.863281 400.417969 C 403.472656 401.089844 404.117188 401.730469 404.792969 402.34375 C 405.46875 402.953125 406.171875 403.527344 406.902344 404.070312 C 407.632812 404.609375 408.390625 405.113281 409.171875 405.578125 C 409.953125 406.046875 410.753906 406.472656 411.578125 406.863281 C 412.402344 407.25 413.242188 407.597656 414.097656 407.902344 C 414.957031 408.207031 415.828125 408.46875 416.710938 408.691406 C 417.59375 408.910156 418.484375 409.085938 419.382812 409.21875 C 420.285156 409.351562 421.191406 409.441406 422.097656 409.484375 C 423.007812 409.527344 423.917969 409.527344 424.824219 409.480469 C 425.734375 409.433594 426.640625 409.34375 427.539062 409.210938 C 428.441406 409.078125 429.332031 408.898438 430.214844 408.675781 C 431.097656 408.453125 431.964844 408.191406 432.824219 407.882812 C 433.679688 407.574219 434.519531 407.226562 435.339844 406.835938 C 436.164062 406.449219 436.964844 406.019531 437.746094 405.550781 C 438.523438 405.082031 439.28125 404.574219 440.011719 404.035156 C 440.742188 403.492188 441.445312 402.914062 442.117188 402.300781 C 442.792969 401.691406 443.433594 401.046875 444.042969 400.375 C 444.65625 399.699219 445.230469 398.996094 445.773438 398.265625 C 446.3125 397.535156 446.816406 396.777344 447.285156 395.996094 C 447.75 395.21875 448.179688 394.414062 448.566406 393.59375 C 448.957031 392.769531 449.304688 391.929688 449.609375 391.074219 C 449.914062 390.21875 450.175781 389.347656 450.398438 388.464844 C 450.617188 387.582031 450.792969 386.691406 450.925781 385.792969 C 451.058594 384.890625 451.148438 383.988281 451.191406 383.078125 C 451.234375 382.171875 451.234375 381.261719 451.1875 380.355469 C 451.144531 379.445312 451.054688 378.542969 450.917969 377.640625 C 450.785156 376.742188 450.605469 375.851562 450.382812 374.96875 C 450.164062 374.089844 449.898438 373.21875 449.589844 372.363281 C 449.28125 371.507812 448.933594 370.667969 448.542969 369.847656 C 448.152344 369.023438 447.722656 368.222656 447.253906 367.445312 C 446.785156 366.664062 446.28125 365.910156 445.738281 365.179688 C 445.195312 364.449219 444.617188 363.746094 444.003906 363.074219 C 443.394531 362.402344 442.75 361.761719 442.074219 361.148438 C 441.398438 360.539062 440.695312 359.964844 439.964844 359.421875 C 439.234375 358.882812 438.476562 358.378906 437.695312 357.910156 C 436.914062 357.445312 436.113281 357.019531 435.289062 356.628906 C 434.464844 356.242188 433.625 355.894531 432.765625 355.589844 C 431.910156 355.285156 431.039062 355.023438 430.15625 354.800781 Z M 435.6875 377.789062 C 435.285156 380.496094 433.785156 381.804688 431.792969 382.265625 C 434.527344 383.6875 435.921875 385.871094 434.59375 389.65625 C 432.949219 394.355469 429.039062 394.75 423.839844 393.769531 L 422.578125 398.824219 L 419.527344 398.0625 L 420.769531 393.078125 C 419.957031 392.875 419.148438 392.664062 418.339844 392.445312 L 417.089844 397.457031 L 414.042969 396.695312 L 415.308594 391.632812 C 414.59375 391.453125 413.871094 391.257812 413.132812 391.074219 L 409.164062 390.082031 L 410.679688 386.59375 C 410.679688 386.59375 412.925781 387.191406 412.894531 387.148438 C 413.035156 387.195312 413.179688 387.210938 413.328125 387.199219 C 413.472656 387.183594 413.613281 387.144531 413.746094 387.078125 C 413.875 387.007812 413.988281 386.917969 414.082031 386.804688 C 414.179688 386.691406 414.25 386.566406 414.292969 386.425781 L 416.285156 378.433594 C 416.398438 378.460938 416.507812 378.488281 416.609375 378.515625 C 416.503906 378.472656 416.398438 378.441406 416.292969 378.414062 L 417.714844 372.710938 C 417.734375 372.5 417.714844 372.292969 417.65625 372.085938 C 417.597656 371.882812 417.5 371.699219 417.367188 371.535156 C 417.234375 371.367188 417.074219 371.234375 416.886719 371.128906 C 416.703125 371.027344 416.503906 370.964844 416.292969 370.9375 C 416.34375 370.90625 414.078125 370.386719 414.078125 370.386719 L 414.890625 367.132812 L 419.097656 368.183594 L 419.09375 368.199219 C 419.726562 368.355469 420.378906 368.503906 421.042969 368.65625 L 422.289062 363.648438 L 425.339844 364.410156 L 424.113281 369.316406 C 424.933594 369.503906 425.757812 369.691406 426.558594 369.890625 L 427.773438 365.015625 L 430.824219 365.773438 L 429.574219 370.78125 C 433.425781 372.105469 436.242188 374.09375 435.6875 377.789062 Z M 435.6875 377.789062 " fill-opacity="1" fill-rule="nonzero"/><g clip-path="url(#1556de007e)"><path fill="#e6e6e6" d="M 154.402344 654.089844 C 152.292969 673.253906 41.570312 671.644531 41.738281 654.085938 C 43.847656 634.921875 154.570312 636.53125 154.402344 654.089844 Z M 154.402344 654.089844 " fill-opacity="1" fill-rule="nonzero"/></g><path fill="#ffb8b8" d="M 118.640625 605.84375 L 123.128906 615.5625 L 131.359375 614.8125 L 136.59375 597.621094 L 128.367188 593.136719 Z M 118.640625 605.84375 " fill-opacity="1" fill-rule="nonzero"/><path fill="#ffb8b8" d="M 90.394531 628.222656 L 90.214844 634.996094 L 102.933594 635.742188 L 102.933594 627.519531 Z M 90.394531 628.222656 " fill-opacity="1" fill-rule="nonzero"/><path fill="#2f2e41" d="M 94.703125 504.929688 L 97.695312 564.730469 L 90.214844 629.761719 L 112.65625 632.753906 L 126.871094 550.527344 L 131.359375 494.464844 Z M 94.703125 504.929688 " fill-opacity="1" fill-rule="nonzero"/><path fill="#2f2e41" d="M 59.546875 483.253906 C 59.546875 483.253906 50.570312 542.304688 69.269531 561.742188 C 87.972656 581.175781 113.40625 615.5625 113.40625 615.5625 L 131.359375 593.136719 L 85.726562 544.546875 L 94.703125 511.65625 L 131.359375 494.464844 L 125.375 453.351562 L 71.515625 452.605469 Z M 59.546875 483.253906 " fill-opacity="1" fill-rule="nonzero"/><path fill="#ffb8b8" d="M 120.136719 330.015625 C 120.136719 330.550781 120.109375 331.089844 120.058594 331.625 C 120.003906 332.160156 119.925781 332.695312 119.820312 333.222656 C 119.714844 333.75 119.585938 334.273438 119.429688 334.789062 C 119.273438 335.304688 119.089844 335.808594 118.886719 336.308594 C 118.679688 336.804688 118.449219 337.292969 118.195312 337.765625 C 117.941406 338.242188 117.664062 338.703125 117.363281 339.148438 C 117.066406 339.597656 116.742188 340.03125 116.402344 340.445312 C 116.058594 340.863281 115.699219 341.261719 115.316406 341.640625 C 114.9375 342.023438 114.539062 342.382812 114.121094 342.726562 C 113.703125 343.066406 113.273438 343.386719 112.824219 343.6875 C 112.375 343.988281 111.914062 344.261719 111.4375 344.515625 C 110.964844 344.769531 110.476562 345 109.976562 345.207031 C 109.480469 345.414062 108.972656 345.59375 108.457031 345.75 C 107.941406 345.90625 107.417969 346.039062 106.890625 346.144531 C 106.363281 346.246094 105.828125 346.328125 105.292969 346.378906 C 104.757812 346.433594 104.21875 346.457031 103.679688 346.457031 C 103.140625 346.457031 102.605469 346.433594 102.066406 346.378906 C 101.53125 346.328125 101 346.246094 100.46875 346.144531 C 99.941406 346.039062 99.417969 345.90625 98.902344 345.75 C 98.386719 345.59375 97.878906 345.414062 97.382812 345.207031 C 96.882812 345 96.398438 344.769531 95.921875 344.515625 C 95.449219 344.261719 94.984375 343.988281 94.539062 343.6875 C 94.089844 343.386719 93.65625 343.066406 93.242188 342.726562 C 92.824219 342.382812 92.425781 342.023438 92.042969 341.640625 C 91.664062 341.261719 91.300781 340.863281 90.960938 340.445312 C 90.617188 340.03125 90.296875 339.597656 89.996094 339.148438 C 89.699219 338.703125 89.421875 338.242188 89.167969 337.765625 C 88.914062 337.292969 88.683594 336.804688 88.476562 336.308594 C 88.269531 335.808594 88.089844 335.304688 87.933594 334.789062 C 87.777344 334.273438 87.644531 333.75 87.539062 333.222656 C 87.433594 332.695312 87.355469 332.160156 87.304688 331.625 C 87.25 331.089844 87.222656 330.550781 87.222656 330.015625 C 87.222656 329.476562 87.25 328.9375 87.304688 328.402344 C 87.355469 327.867188 87.433594 327.335938 87.539062 326.804688 C 87.644531 326.277344 87.777344 325.753906 87.933594 325.242188 C 88.089844 324.726562 88.269531 324.21875 88.476562 323.722656 C 88.683594 323.222656 88.914062 322.738281 89.167969 322.261719 C 89.421875 321.785156 89.699219 321.324219 89.996094 320.878906 C 90.296875 320.429688 90.617188 319.996094 90.960938 319.582031 C 91.300781 319.164062 91.664062 318.765625 92.042969 318.386719 C 92.425781 318.003906 92.824219 317.644531 93.242188 317.300781 C 93.65625 316.960938 94.089844 316.640625 94.539062 316.339844 C 94.984375 316.042969 95.449219 315.765625 95.921875 315.511719 C 96.398438 315.257812 96.882812 315.027344 97.382812 314.820312 C 97.878906 314.613281 98.386719 314.433594 98.902344 314.277344 C 99.417969 314.121094 99.941406 313.992188 100.46875 313.886719 C 101 313.78125 101.53125 313.703125 102.066406 313.648438 C 102.605469 313.59375 103.140625 313.570312 103.679688 313.570312 C 104.21875 313.570312 104.757812 313.59375 105.292969 313.648438 C 105.828125 313.703125 106.363281 313.78125 106.890625 313.886719 C 107.417969 313.992188 107.941406 314.121094 108.457031 314.277344 C 108.972656 314.433594 109.480469 314.613281 109.976562 314.820312 C 110.476562 315.027344 110.964844 315.257812 111.4375 315.511719 C 111.914062 315.765625 112.375 316.042969 112.824219 316.339844 C 113.273438 316.640625 113.703125 316.960938 114.121094 317.300781 C 114.539062 317.644531 114.9375 318.003906 115.316406 318.386719 C 115.699219 318.765625 116.058594 319.164062 116.402344 319.582031 C 116.742188 319.996094 117.066406 320.429688 117.363281 320.878906 C 117.664062 321.324219 117.941406 321.785156 118.195312 322.261719 C 118.449219 322.738281 118.679688 323.222656 118.886719 323.722656 C 119.089844 324.21875 119.273438 324.726562 119.429688 325.242188 C 119.585938 325.753906 119.714844 326.277344 119.820312 326.804688 C 119.925781 327.335938 120.003906 327.867188 120.058594 328.402344 C 120.109375 328.9375 120.136719 329.476562 120.136719 330.015625 Z M 120.136719 330.015625 " fill-opacity="1" fill-rule="nonzero"/><path fill="#ffb8b8" d="M 89.46875 333.753906 C 89.46875 333.753906 88.71875 356.925781 84.980469 359.914062 C 81.238281 362.90625 98.445312 375.613281 98.445312 375.613281 L 109.664062 357.671875 L 109.664062 341.226562 Z M 89.46875 333.753906 " fill-opacity="1" fill-rule="nonzero"/><path fill="#d0cde1" d="M 96.949219 365.148438 L 87.867188 351.445312 L 82.734375 358.417969 L 75.253906 379.351562 L 81.238281 460.828125 L 116.398438 461.574219 L 120.886719 368.136719 L 109.664062 354.683594 Z M 96.949219 365.148438 " fill-opacity="1" fill-rule="nonzero"/><path fill="#2f2e41" d="M 135.097656 370.378906 L 141.082031 369.632812 C 141.082031 369.632812 142.578125 370.378906 143.328125 375.613281 C 144.074219 380.84375 153.054688 427.191406 153.054688 427.191406 L 141.082031 484 L 127.617188 466.058594 L 135.847656 434.664062 L 127.617188 403.269531 Z M 135.097656 370.378906 " fill-opacity="1" fill-rule="nonzero"/><path fill="#2f2e41" d="M 58.796875 369.632812 L 54.308594 369.632812 L 43.089844 430.179688 L 53.5625 477.273438 L 64.035156 460.082031 L 61.042969 441.394531 L 62.539062 424.949219 L 67.773438 415.230469 Z M 58.796875 369.632812 " fill-opacity="1" fill-rule="nonzero"/><path fill="#2f2e41" d="M 125.375 612.570312 C 125.375 612.570312 120.886719 611.074219 120.886719 614.066406 C 120.886719 617.054688 123.878906 626.027344 123.878906 626.027344 C 123.878906 626.027344 119.390625 653.683594 126.121094 652.1875 C 132.855469 650.695312 138.089844 637.984375 138.839844 634.25 C 139.585938 630.511719 143.328125 611.074219 143.328125 611.074219 C 143.328125 611.074219 149.3125 596.875 145.570312 596.125 C 141.832031 595.378906 131.359375 592.386719 131.359375 592.386719 C 131.359375 592.386719 137.34375 611.074219 125.375 612.570312 Z M 125.375 612.570312 " fill-opacity="1" fill-rule="nonzero"/><path fill="#2f2e41" d="M 103.679688 635.742188 C 103.679688 635.742188 91.710938 628.269531 89.46875 634.25 C 87.976562 638.625 86.976562 643.109375 86.476562 647.703125 C 86.476562 647.703125 83.484375 657.421875 95.453125 655.925781 C 107.421875 654.429688 105.925781 654.429688 106.671875 649.945312 C 107.421875 645.460938 103.679688 635.742188 103.679688 635.742188 Z M 103.679688 635.742188 " fill-opacity="1" fill-rule="nonzero"/><path fill="#2f2e41" d="M 93.957031 330.015625 L 96.949219 329.265625 C 96.949219 329.265625 99.191406 316.558594 104.429688 318.054688 C 109.664062 319.550781 123.128906 321.042969 123.128906 315.0625 C 123.128906 309.085938 110.414062 303.851562 102.933594 304.597656 C 95.453125 305.347656 82.734375 307.589844 83.484375 318.800781 C 84.230469 330.015625 89.058594 340.921875 89.058594 340.921875 L 89.449219 334.273438 Z M 93.957031 330.015625 " fill-opacity="1" fill-rule="nonzero"/><path fill="#d0cde1" d="M 109.664062 374.117188 L 96.949219 365.148438 L 109.664062 354.683594 L 114.082031 359.976562 Z M 109.664062 374.117188 " fill-opacity="1" fill-rule="nonzero"/><path fill="#d0cde1" d="M 85.726562 373.371094 L 96.949219 365.148438 L 87.972656 351.691406 L 82.734375 358.417969 Z M 85.726562 373.371094 " fill-opacity="1" fill-rule="nonzero"/><path fill="#2f2e41" d="M 140.335938 369.632812 L 116.398438 359.914062 L 110.789062 355.804688 L 93.957031 430.179688 L 82.734375 396.542969 L 86.101562 353.5625 L 55.058594 369.632812 L 65.53125 420.460938 L 67.027344 439.898438 L 62.539062 455.59375 C 62.539062 455.59375 46.828125 466.808594 52.066406 478.769531 C 57.300781 490.726562 63.285156 491.476562 63.285156 491.476562 C 63.285156 491.476562 88.71875 467.554688 90.214844 461.574219 C 91.710938 455.59375 93.957031 445.128906 93.957031 445.128906 C 93.957031 445.128906 106.671875 492.96875 121.632812 492.222656 C 136.59375 491.476562 136.59375 475.777344 136.59375 475.777344 L 132.855469 459.332031 L 126.871094 442.140625 L 129.863281 413.734375 Z M 140.335938 369.632812 " fill-opacity="1" fill-rule="nonzero"/><g clip-path="url(#3881d8d027)"><g clip-path="url(#aea5a44048)"><path fill="#00bf63" d="M 384.378906 344.632812 L 459.328125 344.632812 L 459.328125 419.582031 L 384.378906 419.582031 Z M 384.378906 344.632812 " fill-opacity="1" fill-rule="nonzero"/></g></g><g clip-path="url(#fca1ebcff3)"><path fill="#ffffff" d="M 421.769531 414.230469 C 404.121094 414.230469 389.816406 399.921875 389.816406 382.273438 C 389.816406 364.625 404.121094 350.316406 421.769531 350.316406 C 439.417969 350.316406 453.726562 364.625 453.726562 382.273438 C 453.726562 399.921875 439.417969 414.230469 421.769531 414.230469 Z M 446.605469 382.273438 C 446.605469 368.558594 435.488281 357.4375 421.769531 357.4375 C 408.054688 357.4375 396.933594 368.558594 396.933594 382.273438 C 396.933594 395.988281 408.054688 407.109375 421.769531 407.109375 C 435.488281 407.109375 446.605469 395.988281 446.605469 382.273438 Z M 446.605469 382.273438 " fill-opacity="1" fill-rule="nonzero"/></g><g clip-path="url(#11362ad2ec)"><path fill="#ffffff" d="M 389.152344 382.273438 C 389.152344 364.289062 403.785156 349.65625 421.769531 349.65625 C 439.757812 349.65625 454.386719 364.289062 454.386719 382.273438 C 454.386719 400.257812 439.757812 414.890625 421.769531 414.890625 C 403.785156 414.890625 389.152344 400.257812 389.152344 382.273438 Z M 453.0625 382.273438 C 453.0625 365.019531 439.027344 350.980469 421.769531 350.980469 C 404.515625 350.980469 390.476562 365.019531 390.476562 382.273438 C 390.476562 399.527344 404.515625 413.566406 421.769531 413.566406 C 439.027344 413.566406 453.0625 399.527344 453.0625 382.273438 Z M 396.273438 382.273438 C 396.273438 368.214844 407.710938 356.777344 421.769531 356.777344 C 435.832031 356.777344 447.269531 368.214844 447.269531 382.273438 C 447.269531 396.332031 435.832031 407.773438 421.769531 407.773438 C 407.710938 407.773438 396.273438 396.332031 396.273438 382.273438 Z M 445.945312 382.273438 C 445.945312 368.945312 435.101562 358.101562 421.769531 358.101562 C 408.441406 358.101562 397.597656 368.945312 397.597656 382.273438 C 397.597656 395.601562 408.441406 406.445312 421.769531 406.445312 C 435.101562 406.445312 445.945312 395.601562 445.945312 382.273438 Z M 445.945312 382.273438 " fill-opacity="1" fill-rule="nonzero"/></g><path fill="#ffffff" d="M 450.988281 350.652344 L 453.226562 352.890625 C 453.375 353.035156 453.488281 353.203125 453.566406 353.398438 C 453.644531 353.589844 453.683594 353.789062 453.683594 353.996094 C 453.683594 354.203125 453.644531 354.402344 453.566406 354.59375 C 453.488281 354.785156 453.375 354.953125 453.226562 355.101562 L 395.464844 412.863281 C 395.316406 413.011719 395.148438 413.125 394.957031 413.203125 C 394.765625 413.28125 394.566406 413.320312 394.359375 413.320312 C 394.148438 413.320312 393.949219 413.28125 393.757812 413.203125 C 393.566406 413.125 393.398438 413.011719 393.25 412.863281 L 391.015625 410.625 C 390.867188 410.480469 390.753906 410.3125 390.675781 410.121094 C 390.597656 409.929688 390.554688 409.726562 390.554688 409.519531 C 390.554688 409.3125 390.597656 409.113281 390.675781 408.921875 C 390.753906 408.730469 390.867188 408.5625 391.015625 408.414062 L 448.777344 350.652344 C 448.925781 350.503906 449.09375 350.390625 449.285156 350.3125 C 449.476562 350.234375 449.675781 350.195312 449.882812 350.195312 C 450.089844 350.195312 450.289062 350.234375 450.480469 350.3125 C 450.671875 350.390625 450.84375 350.503906 450.988281 350.652344 Z M 450.988281 350.652344 " fill-opacity="1" fill-rule="nonzero"/><g clip-path="url(#c0761c93ae)"><path fill="#ffffff" d="M 389.894531 409.519531 C 389.894531 408.925781 390.125 408.367188 390.546875 407.945312 L 448.308594 350.183594 C 449.175781 349.316406 450.589844 349.316406 451.457031 350.183594 L 453.695312 352.421875 C 454.5625 353.289062 454.5625 354.699219 453.695312 355.570312 L 395.929688 413.332031 C 395.511719 413.753906 394.953125 413.984375 394.359375 413.984375 C 393.761719 413.984375 393.203125 413.753906 392.785156 413.332031 L 390.546875 411.09375 C 390.125 410.675781 389.894531 410.117188 389.894531 409.519531 Z M 453.023438 353.996094 C 453.023438 353.765625 452.933594 353.53125 452.757812 353.359375 L 450.519531 351.121094 C 450.167969 350.769531 449.597656 350.769531 449.246094 351.121094 L 391.484375 408.882812 C 391.140625 409.222656 391.140625 409.816406 391.484375 410.160156 L 393.71875 412.394531 C 393.890625 412.566406 394.117188 412.660156 394.359375 412.660156 C 394.597656 412.660156 394.824219 412.566406 394.996094 412.394531 L 452.757812 354.632812 C 452.933594 354.457031 453.023438 354.226562 453.023438 353.996094 Z M 453.023438 353.996094 " fill-opacity="1" fill-rule="nonzero"/></g></svg>
